<svg xmlns="http://www.w3.org/2000/svg" width="128" height="119" viewBox="0 0 128 119">
  <g id="Group_1401" data-name="Group 1401" transform="translate(-924 -3963.2)">
    <g id="Group_1399" data-name="Group 1399">
      <path id="Path_2226" data-name="Path 2226" d="M924,4022.7l27,15.588v-31.177Z" fill="#e4ecef"/>
      <rect id="Rectangle_403" data-name="Rectangle 403" width="119" height="119" rx="3" transform="translate(933 3963.2)" fill="#e4ecef"/>
    </g>
    <g id="Group_1400" data-name="Group 1400">
      <path id="Path_2227" data-name="Path 2227" d="M955.4,3981.58a2.6,2.6,0,0,1,.678,1.758,2.63,2.63,0,1,1-5.259,0,2.576,2.576,0,0,1,.87-1.949,2.658,2.658,0,0,1,1.763-.678A2.587,2.587,0,0,1,955.4,3981.58Z" fill="#0065c1"/>
      <path id="Path_2228" data-name="Path 2228" d="M962.406,3986.947a6.943,6.943,0,0,0,.051,1.02h-1.21a5.992,5.992,0,0,0,.06-1.039v-2.51a6.644,6.644,0,0,1-1.11.85,3.824,3.824,0,0,0-.51-1.039,6.9,6.9,0,0,0,1.72-1.35,5.9,5.9,0,0,0,1.089-1.539h-1.629a6.654,6.654,0,0,0-.84.041v-1.11a6.11,6.11,0,0,0,.79.04h.5v-.84a4.7,4.7,0,0,0-.059-.76h1.209a4.267,4.267,0,0,0-.061.781v.819h.41a3.639,3.639,0,0,0,.58-.03l.48.52a2.691,2.691,0,0,0-.22.42,8.214,8.214,0,0,1-1,1.709,5.928,5.928,0,0,0,1.59,1.269,4.306,4.306,0,0,0-.551.979,5.5,5.5,0,0,1-1.289-1.129Zm4.239-.468h1.2a8.656,8.656,0,0,0,1.138-.061v1.209a8.027,8.027,0,0,0-1.138-.07h-3.418a7.9,7.9,0,0,0-1.13.07v-1.209a9.2,9.2,0,0,0,1.149.061h1.09v-3.909h-.75c-.34,0-.66.02-.979.049v-1.129a6.574,6.574,0,0,0,.979.051h.75v-1.76a7.06,7.06,0,0,0-.07-1.039h1.25a5.77,5.77,0,0,0-.07,1.039v1.76H967.7a6.372,6.372,0,0,0,.981-.051v1.129c-.321-.029-.631-.049-.981-.049h-1.058Z" fill="#394b61"/>
      <path id="Path_2229" data-name="Path 2229" d="M972.527,3986.238c-.5,0-.79.01-1.109.039.019-.25.039-.548.039-1.048v-2.53a10.162,10.162,0,0,0-.039-1.068c.3.029.639.039,1.109.039h5.317c.49,0,.769-.01,1.119-.039a9.246,9.246,0,0,0-.039,1.068v2.53c0,.388.01.609.01.648a1.807,1.807,0,0,0,.029.4c-.31-.029-.619-.039-1.119-.039h-.8a7.914,7.914,0,0,0,2.878.85,3.331,3.331,0,0,0-.62.978,7.478,7.478,0,0,1-3.338-1.339l.539-.489h-2.718l.63.53a8.638,8.638,0,0,1-1.819.888,11.642,11.642,0,0,1-1.53.4,3.231,3.231,0,0,0-.609-.991,7.506,7.506,0,0,0,2.839-.828Zm6.026-5.726c0,.3.01.519.031.748-.3-.02-.641-.03-1.08-.03H972.9c-.449,0-.8.01-1.1.03.019-.25.04-.479.04-.748v-.77a4.939,4.939,0,0,0-.05-.769,9.1,9.1,0,0,0,1.14.048h4.537a8.92,8.92,0,0,0,1.13-.048,5.865,5.865,0,0,0-.041.769Zm-6.026,2.447h5.317v-.459h-5.317Zm0,1.209h5.317v-.459h-5.317Zm0,1.24h5.317v-.49h-5.317Zm.41-5.537v.551h4.506v-.551Z" fill="#394b61"/>
      <path id="Path_2230" data-name="Path 2230" d="M990.583,3981.42a5.682,5.682,0,0,0-.649-.049,9.388,9.388,0,0,1-.281,1.947,6.9,6.9,0,0,1-.739,1.881,6.122,6.122,0,0,0,1.879,1.668,3.319,3.319,0,0,0-.709,1.029,7.851,7.851,0,0,1-1.8-1.8,8.055,8.055,0,0,1-2.329,1.83,3.242,3.242,0,0,0-.749-.961,5.926,5.926,0,0,0,2.479-1.838,8.165,8.165,0,0,1-.749-2.029,7,7,0,0,1-.581.75,2.753,2.753,0,0,0-.6-.9,3.846,3.846,0,0,0,.529-.689,4.952,4.952,0,0,0-.58-.03h-.759a10.85,10.85,0,0,1-.809.739h.769a2.683,2.683,0,0,0,.6-.03l.38.5c-.14.141-.21.219-.21.219a8.6,8.6,0,0,1-1.01,1v.11c.54-.069.84-.12,1.629-.26l.01.9c-.8.16-1.1.209-1.639.28v1.259c0,.69-.26.85-1.379.85-.17,0-.3,0-.65-.02a2.891,2.891,0,0,0-.219-.98,6.7,6.7,0,0,0,1.059.07c.16,0,.179-.029.179-.2v-.859l-1.478.138a5.061,5.061,0,0,0-.53.071l-.14-1.01h.28c.329,0,1.039-.049,1.868-.119a2.407,2.407,0,0,0-.039-.571h.24a3.243,3.243,0,0,0,.569-.558h-1.389c-.39.25-.67.408-1.069.619a2.54,2.54,0,0,0-.64-.75,10.526,10.526,0,0,0,2.3-1.4h-1.149a7.749,7.749,0,0,0-.919.049v-.959a5.909,5.909,0,0,0,.939.061h.839v-.791h-.6a5.764,5.764,0,0,0-.809.041v-.949a6.121,6.121,0,0,0,.83.048h.579v-.279a4.85,4.85,0,0,0-.05-.709H984.4a3.5,3.5,0,0,0-.049.719v.269h.349a3.257,3.257,0,0,0,.6-.039v.77a5.754,5.754,0,0,0,.689-1.35l.93.44a9.234,9.234,0,0,1-1.2,1.83,3.273,3.273,0,0,0,.6-.031v.859a9.171,9.171,0,0,0,1.13-3.518l1.069.221c-.06.25-.06.25-.18.738-.029.131-.09.352-.209.782h1.459a6.257,6.257,0,0,0,1-.061Zm-6.036-.039a6.529,6.529,0,0,0,.639-.77c-.1-.009-.27-.021-.4-.021h-.439v.791Zm3.258,0c-.1.228-.141.308-.221.488a8.208,8.208,0,0,0,.711,2.311,5.348,5.348,0,0,0,.389-1.071,7.857,7.857,0,0,0,.25-1.728Z" fill="#394b61"/>
      <path id="Path_2231" data-name="Path 2231" d="M996.146,3979.342a2.848,2.848,0,0,0-.06-.66H997.3a3.454,3.454,0,0,0-.05.65v.129h2.948a7.159,7.159,0,0,0,1.14-.059v1.049a8.525,8.525,0,0,0-1.07-.051h-1.319a22.8,22.8,0,0,1,2.278,1.58l-.779.739a11.7,11.7,0,0,0-.92-.809c-1.728.151-3.487.24-5.676.279-.1,0-.25.01-.429.01a2.666,2.666,0,0,1-.321.01,2.507,2.507,0,0,0-.359.031l-.121-1a7.045,7.045,0,0,0,.79.03h.94a4.745,4.745,0,0,0,.589-.87h-1.579a8.4,8.4,0,0,0-1.079.051V3979.4a7.273,7.273,0,0,0,1.159.059h2.7Zm-1.56,7.465a11.22,11.22,0,0,0,.051,1.131h-1.18a10.448,10.448,0,0,0,.061-1.26v-3.11a6.31,6.31,0,0,0-.051-1c.24.02.59.03,1.13.03h4.447l.829-.01a1.137,1.137,0,0,1,.131-.01,1.155,1.155,0,0,1,.119-.019,10.285,10.285,0,0,0-.039,1.068v3.178a.934.934,0,0,1-.311.849,1.579,1.579,0,0,1-.989.192c-.22,0-.489-.012-1.079-.032a4.866,4.866,0,0,0-.269-.939,11.947,11.947,0,0,0,1.228.07c.29,0,.37-.06.37-.259v-.4h-4.448Zm4.448-3.3h-4.448v.519h4.448Zm-4.448,1.9h4.448v-.5h-4.448Zm1.54-5.008c-.13.211-.39.58-.61.86.81-.02,2.119-.069,2.959-.119-.25-.17-.35-.231-.7-.45l.539-.291Z" fill="#394b61"/>
      <path id="Path_2232" data-name="Path 2232" d="M1002.957,3980.361a4.545,4.545,0,0,0,.8.049h2.148a4.741,4.741,0,0,0,.74-.039v1.02a5.515,5.515,0,0,0-.69-.03h-2.2a6.219,6.219,0,0,0-.8.039Zm5.188,2.03c0,2.937-.26,4.357-1.02,5.615a4.624,4.624,0,0,0-.749-.738,1.907,1.907,0,0,1,.01.259.81.81,0,0,1,.01.151h-.98v-.282h-1.079v.51h-1.04c.031-.33.051-.689.051-.978v-1.481a6.445,6.445,0,0,0-.04-.779,4.527,4.527,0,0,0,.669.031h1.83a4.169,4.169,0,0,0,.589-.031,5.815,5.815,0,0,0-.02.721v1.619c.6-1.039.739-2.07.739-5.328v-1.78a6.014,6.014,0,0,0-.059-1.048h1.139a7.343,7.343,0,0,0-.05,1.1Zm-4.788-.541a5.6,5.6,0,0,0,.64.031h1.769a3.3,3.3,0,0,0,.62-.031v.929a3.89,3.89,0,0,0-.62-.029H1004a5.266,5.266,0,0,0-.64.029Zm0,1.4a5.4,5.4,0,0,0,.64.029h1.769a4.705,4.705,0,0,0,.62-.029v.93a4.555,4.555,0,0,0-.63-.032h-1.769a4.555,4.555,0,0,0-.63.032Zm.01-4.3a4.358,4.358,0,0,0,.811.051h1.428a4.353,4.353,0,0,0,.81-.051v1a6.281,6.281,0,0,0-.81-.039h-1.428a6.49,6.49,0,0,0-.811.039Zm.94,7.557h1.119v-.959h-1.119Zm5.737-7.2a6.38,6.38,0,0,0-.05,1.031v5.506a5.736,5.736,0,0,0,.05,1h-1.109a5.966,5.966,0,0,0,.059-1.02v-5.476a6.438,6.438,0,0,0-.05-1.041Zm1.909-.469a9.312,9.312,0,0,0-.06,1.289v6.486a8.478,8.478,0,0,0,.06,1.321h-1.16a8.158,8.158,0,0,0,.061-1.311v-6.5a7.608,7.608,0,0,0-.061-1.289Z" fill="#394b61"/>
      <path id="Path_2233" data-name="Path 2233" d="M1018.465,3984.709a7.5,7.5,0,0,0-.9.039c.02-.219.03-.42.03-.818l-.709.259a3.964,3.964,0,0,0-.1-.49c-.29.039-.38.061-.63.08v3.168a5.781,5.781,0,0,0,.061,1.049h-1.07a7.352,7.352,0,0,0,.06-1.049v-3.078c-.09.01-.229.02-.42.029a6.135,6.135,0,0,0-.939.09l-.11-1.029a2.433,2.433,0,0,0,.43.031h.34c.109-.14.17-.23.449-.65a10.3,10.3,0,0,0-1.209-1.58l.539-.848c.151.18.211.26.311.379a6.971,6.971,0,0,0,.709-1.648l.96.4a4.44,4.44,0,0,0-.39.7,13.365,13.365,0,0,1-.71,1.248c.17.231.22.291.36.5a9.2,9.2,0,0,0,.879-1.7l.92.471a1.126,1.126,0,0,0-.189.289,27.228,27.228,0,0,1-1.58,2.388c.49-.029.689-.05.99-.08a6.059,6.059,0,0,0-.3-.769l.721-.279a10.214,10.214,0,0,1,.629,1.828v-1.619c0-.411-.01-.67-.03-.93a6.124,6.124,0,0,0,.889.041h1.08v-.551h-1.209a5.408,5.408,0,0,0-.939.051v-1.049a7.2,7.2,0,0,0,1.039.059h1.109v-.09a5.173,5.173,0,0,0-.06-.8h1.119a4.433,4.433,0,0,0-.06.8v.09h1.489a7.337,7.337,0,0,0,1.04-.059v1.049a5.868,5.868,0,0,0-.94-.051h-1.589v.551h1.27a5.051,5.051,0,0,0,.829-.041c-.02.221-.029.48-.029.961v1.728c0,.491.009.76.029.969a8.319,8.319,0,0,0-.949-.039h-.84a7.047,7.047,0,0,0,1.019.959,6.074,6.074,0,0,0,1.379.811,4.224,4.224,0,0,0-.478,1.087,7.482,7.482,0,0,1-1.27-.959,5.639,5.639,0,0,1-.99-1.16c.03.51.03.522.03.77v.849a4.752,4.752,0,0,0,.06.9h-1.119a4.59,4.59,0,0,0,.06-.889v-.84c0-.33.01-.531.02-.759a4.8,4.8,0,0,1-1.079,1.238,6.9,6.9,0,0,1-1.13.859,3.179,3.179,0,0,0-.65-.939,6.334,6.334,0,0,0,2.449-1.928Zm-3.487-.26a15.019,15.019,0,0,1-.38,2.957l-.86-.42a10.514,10.514,0,0,0,.369-2.716Zm2.168-.14a15.928,15.928,0,0,1,.3,1.759l-.8.26a10.588,10.588,0,0,0-.269-1.849Zm1.379-2.3v.51h1.01v-.51Zm0,1.32v.5h1.01v-.5Zm2.009-.81h1.1v-.51h-1.1Zm0,1.308h1.11v-.5h-1.11Z" fill="#394b61"/>
      <path id="Path_2234" data-name="Path 2234" d="M1032.844,3981.51a8.491,8.491,0,0,0,.849-.03c-.031.17-.031.17-.089.68-.122.84-.281,1.029-.96,1.069v2.3a9.777,9.777,0,0,0,.04,1.061c-.21-.02-.651-.031-1.06-.031h-.479a6.763,6.763,0,0,0,2.728.65,4.925,4.925,0,0,0-.62.9,8.073,8.073,0,0,1-3.259-1.14l.551-.41h-2.6l.5.41a8.184,8.184,0,0,1-3.158,1.15,3.949,3.949,0,0,0-.609-.869,7.775,7.775,0,0,0,2.668-.691h-.469c-.43,0-.83.011-1.061.031.021-.18.041-.57.041-1v-1.859c-.269.1-.41.14-.8.259l-.08-.179a2.4,2.4,0,0,0-.4-.709,4.974,4.974,0,0,0,2.289-.86h-1.109c-.211,0-.551.01-.83.02a6.152,6.152,0,0,0,.58-1.819,8.367,8.367,0,0,0,.839.03h1.309c.02-.241.03-.241.03-.35h-1.62a5.544,5.544,0,0,0-.959.051v-.871a5.768,5.768,0,0,0,.959.051h1.651a3.814,3.814,0,0,0-.041-.629h1.07a5.255,5.255,0,0,0-.041.629h1.119a2.81,2.81,0,0,0-.049-.629h1.089a2.905,2.905,0,0,0-.05.629h1.36a8.8,8.8,0,0,0,.979-.051,5.157,5.157,0,0,0-.04.781v.4a4.68,4.68,0,0,0,.03.711c-.32-.021-.62-.031-.979-.031h-1.35v.35Zm-6.477-.35a2.366,2.366,0,0,1-.12.35h1.179c.051-.139.07-.2.121-.35Zm.52,2.61h4.717v-.35h-4.717Zm0,1.009h4.717v-.371h-4.717Zm0,1.008h4.717v-.369h-4.717Zm2.937-3.547H1028.1a2.266,2.266,0,0,1-.449.49h2.168Zm-1.279-1.08c-.039.151-.049.2-.09.35h1.369v-.35Zm.131-1.039c0,.141-.01.19-.02.35h1.168v-.35Zm2.138.35h1.26v-.35h-1.26Zm1.03,2.259a1.132,1.132,0,0,0-.1-.271,2.226,2.226,0,0,0,.56.09c.2,0,.239-.039.269-.309h-1.759v.49h1.03Z" fill="#394b61"/>
      <path id="Path_2235" data-name="Path 2235" d="M955.4,4001.168a2.593,2.593,0,0,1,.678,1.758,2.63,2.63,0,1,1-5.259,0,2.576,2.576,0,0,1,.87-1.949,2.658,2.658,0,0,1,1.763-.678A2.584,2.584,0,0,1,955.4,4001.168Z" fill="#0065c1"/>
      <path id="Path_2236" data-name="Path 2236" d="M961.637,3998.889a7.452,7.452,0,0,0-.08,1.289v5.377a7.524,7.524,0,0,0,.08,1.289h-1.52a7.426,7.426,0,0,0,.08-1.289v-5.377a7.371,7.371,0,0,0-.08-1.289Z" fill="#394b61"/>
      <path id="Path_2237" data-name="Path 2237" d="M967.355,4005.545a8.284,8.284,0,0,0,.081,1.3h-1.509a8.5,8.5,0,0,0,.08-1.3v-5.457h-1.35a9.761,9.761,0,0,0-1.369.07v-1.34a9.9,9.9,0,0,0,1.359.071H968.6a10.452,10.452,0,0,0,1.469-.071v1.34a10.337,10.337,0,0,0-1.469-.07h-1.25Z" fill="#394b61"/>
      <path id="Path_2238" data-name="Path 2238" d="M979.733,3998.8a9.335,9.335,0,0,1-.849,1.228c.12.131.139.161.27.311.209-.291.3-.44.619-.959l.73.529c-.21.26-.21.26-.7.9a10.121,10.121,0,0,1-.8.9c.3-.019.41-.029.72-.061a2.566,2.566,0,0,0-.181-.388l.631-.231a8.489,8.489,0,0,1,.59,1.569l-.7.23c-.049-.221-.07-.289-.11-.48-.2.031-.439.06-.729.09a2.725,2.725,0,0,1,.52.41l-.381.361h.221a5.121,5.121,0,0,0,1.049-.061v1.049a8.312,8.312,0,0,0-1.049-.06h-.34l.77.49a7.993,7.993,0,0,1-1.09,1.2c.29.4.55.619.7.619.181,0,.271-.279.37-1.209a2.47,2.47,0,0,0,.76.551,3.5,3.5,0,0,1-.409,1.408.692.692,0,0,1-.651.321c-.5,0-.959-.33-1.529-1.08a7.789,7.789,0,0,1-2.188,1.119,2.888,2.888,0,0,0-.57-.889,6.759,6.759,0,0,0,2.3-.99,6.115,6.115,0,0,1-.51-1.539h-1.33a2.708,2.708,0,0,1-.029.32,3.5,3.5,0,0,0,1.109.84,2.679,2.679,0,0,0-.269.439c-.141.25-.141.25-.211.381a3.316,3.316,0,0,1-.829-.7,4.545,4.545,0,0,1-1.24,2.08,3.8,3.8,0,0,0-.8-.721,3.347,3.347,0,0,0,1.3-2.638c-.37.011-.549.021-.75.041v-1.01a5.788,5.788,0,0,0,.821.041h2.058c-.041-.291-.05-.371-.07-.561l-.559.2c-.021-.17-.031-.229-.041-.34-.259.041-.429.07-.7.111-.769.1-1.289.17-1.429.2l-.04-.31a3.649,3.649,0,0,0-.291.7,5.334,5.334,0,0,1-.469-.92c.02.279.04.869.04,1.219v2.879a8.587,8.587,0,0,0,.051,1.228h-1.09a9.585,9.585,0,0,0,.059-1.228v-1.76c0-.449.021-.809.08-1.648a9.475,9.475,0,0,1-.87,2.238,3.127,3.127,0,0,0-.478-1.1,7.809,7.809,0,0,0,.749-1.588,12.9,12.9,0,0,0,.409-1.349h-.239a6.427,6.427,0,0,0-.68.039v-1.069a2.774,2.774,0,0,0,.68.049h.34v-.828a7.142,7.142,0,0,0-.05-1.051h1.079a8.4,8.4,0,0,0-.04,1.039v.84h.179c.211,0,.391-.009.51-.019-.07-.071-.109-.1-.219-.2l.58-.69.219.209a4.786,4.786,0,0,0,.64-1.189l.819.41a9.76,9.76,0,0,1-.869,1.4c.1.121.14.17.24.311a4.613,4.613,0,0,0,.52-.94l.709.481v-.471a6.372,6.372,0,0,0-.07-1.139h1.1a2.472,2.472,0,0,0-.059.67c0,.03,0,.159.009.319v.31l.31-.429c.121.109.19.179.221.209a4.582,4.582,0,0,0,.609-1.088Zm-5.5,2.418a4.124,4.124,0,0,0-.569-.039h-.14a3.355,3.355,0,0,0,.61.978l-.031-.218a1.034,1.034,0,0,0,.15.009h.181c.339-.39.45-.529.629-.769a6.751,6.751,0,0,0-.83-.93Zm2.389-.039a4.585,4.585,0,0,1,.26.658c-.06-.838-.08-1.3-.08-1.748-.119.17-.15.221-.219.32a11.961,11.961,0,0,1-1.141,1.469,6.632,6.632,0,0,0,.731-.08c-.071-.16-.09-.221-.18-.42Zm1.149-1.061c.011.91.011.91.05,1.619h.141a8.456,8.456,0,0,0,.639-.718A5.484,5.484,0,0,0,977.774,4000.117Zm1,2.369c-.089.01-.149.02-.189.02a2.815,2.815,0,0,1-.43.051l-.25.019c.02.231.031.26.08.631h1.12a1.827,1.827,0,0,0-.629-.432Zm-.619,1.649a3.838,3.838,0,0,0,.321.939,2.668,2.668,0,0,0,.759-.939Z" fill="#394b61"/>
      <path id="Path_2239" data-name="Path 2239" d="M985.6,4001.986a3.466,3.466,0,0,0,.391-.609h-2.2c-.32,0-.68.01-.94.029a6.867,6.867,0,0,0,.04-.828v-1.15a7.093,7.093,0,0,0-.04-.86,8.96,8.96,0,0,0,.97.041h1.679a8.09,8.09,0,0,0,.949-.041c-.019.221-.029.43-.029.78v1.689l.67.1c.009-.18.009-.26.009-.449v-1.34a5.689,5.689,0,0,0-.04-.78,7.922,7.922,0,0,0,.94.041h1.778a8.992,8.992,0,0,0,.971-.041,6.494,6.494,0,0,0-.041.86v1.15a6.126,6.126,0,0,0,.041.828c-.261-.019-.62-.029-.94-.029h-1.8c-.361,0-.62.01-.85.029a5.493,5.493,0,0,1-.35.58h3.429a8.475,8.475,0,0,0,1.089-.058v1.078a9.1,9.1,0,0,0-1.089-.061h-1.5a5.4,5.4,0,0,0,2.869,1.371,3.716,3.716,0,0,0-.49,1.018c-.311-.119-.41-.148-.65-.26v1.53a6.837,6.837,0,0,0,.06.939h-1.09v-.449h-1.4v.449h-1.05a5.892,5.892,0,0,0,.04-.76v-2.027c0-.361-.01-.561-.029-.8a5.486,5.486,0,0,0,.769.041h.77a5.183,5.183,0,0,1-1.09-1.051h-1.329a7.017,7.017,0,0,1-1.109,1.051h.7a5.4,5.4,0,0,0,.769-.041,7.82,7.82,0,0,0-.03.8v1.949a5.579,5.579,0,0,0,.041.758h-1.029v-.369h-1.29v.459h-1.089a6.89,6.89,0,0,0,.059-.908v-1.52c-.169.08-.29.141-.569.26a2.7,2.7,0,0,0-.49-.99,6.524,6.524,0,0,0,2.639-1.45h-1.32a6.917,6.917,0,0,0-1.1.061v-1.078a8.21,8.21,0,0,0,1.1.058Zm-1.688-1.408h1.5v-1.131h-1.5Zm.26,5.617h1.29v-1.34h-1.29Zm3.868,0h1.4v-1.34h-1.4Zm.08-5.617h1.559v-1.119h-1.559Z" fill="#394b61"/>
      <path id="Path_2240" data-name="Path 2240" d="M1001.264,4001.1a7.8,7.8,0,0,0,.849-.032c-.031.17-.031.17-.09.68-.121.84-.28,1.029-.96,1.07v2.3a9.718,9.718,0,0,0,.041,1.059c-.21-.02-.651-.029-1.06-.029h-.48a6.805,6.805,0,0,0,2.729.65,4.762,4.762,0,0,0-.62.9,8.1,8.1,0,0,1-3.259-1.138l.551-.41h-2.6l.5.41a8.175,8.175,0,0,1-3.158,1.148,4,4,0,0,0-.609-.869,7.823,7.823,0,0,0,2.668-.689H995.3c-.43,0-.83.009-1.061.029.021-.18.041-.569.041-1v-1.86c-.269.1-.41.139-.8.26l-.081-.18a2.391,2.391,0,0,0-.4-.71,4.972,4.972,0,0,0,2.289-.86h-1.109c-.211,0-.551.01-.83.022a6.151,6.151,0,0,0,.58-1.821,8.23,8.23,0,0,0,.839.032h1.309c.02-.241.029-.241.029-.352h-1.619a5.754,5.754,0,0,0-.959.051v-.869a6.042,6.042,0,0,0,.959.049h1.651a3.815,3.815,0,0,0-.041-.629h1.07a5.242,5.242,0,0,0-.041.629h1.119a2.825,2.825,0,0,0-.049-.629h1.089a2.912,2.912,0,0,0-.05.629h1.36a9.352,9.352,0,0,0,.979-.049,5.12,5.12,0,0,0-.04.779v.4a4.658,4.658,0,0,0,.03.709c-.32-.019-.62-.029-.979-.029h-1.35v.35Zm-6.477-.35a2.47,2.47,0,0,1-.12.35h1.179c.05-.141.07-.2.121-.35Zm.52,2.607h4.716v-.349h-4.716Zm0,1.01h4.716V4004h-4.716Zm0,1.01h4.716v-.369h-4.716Zm2.937-3.549h-1.719a2.174,2.174,0,0,1-.449.49h2.168Zm-1.279-1.078c-.039.148-.049.2-.09.35h1.369v-.35Zm.131-1.041c0,.141-.01.191-.02.352h1.168v-.352Zm2.138.352h1.26v-.352h-1.26Zm1.03,2.257a1.114,1.114,0,0,0-.1-.269,2.282,2.282,0,0,0,.56.09c.2,0,.239-.041.269-.311h-1.759v.49h1.03Z" fill="#394b61"/>
      <path id="Path_2241" data-name="Path 2241" d="M1005.7,4004.406a6.712,6.712,0,0,1-1.019,3.158,6.185,6.185,0,0,0-.97-.791,4.559,4.559,0,0,0,.73-1.687,10.4,10.4,0,0,0,.2-1.529c.05-.84.09-2.26.09-3.44a13.766,13.766,0,0,0-.05-1.449,11.486,11.486,0,0,0,1.149.041h5.607a10.759,10.759,0,0,0,1.149-.041,11.313,11.313,0,0,0-.04,1.131v6.566c0,.828-.3,1.039-1.439,1.039-.31,0-.819-.021-1.12-.041a4,4,0,0,0-.279-1.039c.5.051.94.08,1.259.08.41,0,.5-.039.5-.25v-1.748h-2.4v1.639a8.736,8.736,0,0,0,.051,1.189h-1.179a8.213,8.213,0,0,0,.06-1.179v-1.649Zm2.3-2.359h-2.209c0,.289-.01.49-.01.629-.009.47-.009.541-.009.74H1008Zm0-2.289h-2.18v1.029l-.009.279H1008Zm3.468,1.308v-1.308h-2.4v1.308Zm0,2.35v-1.369h-2.4v1.369Z" fill="#394b61"/>
      <path id="Path_2242" data-name="Path 2242" d="M955.4,4020.754a2.593,2.593,0,0,1,.678,1.758,2.63,2.63,0,1,1-5.259,0,2.576,2.576,0,0,1,.87-1.949,2.658,2.658,0,0,1,1.763-.678A2.584,2.584,0,0,1,955.4,4020.754Z" fill="#0065c1"/>
      <path id="Path_2243" data-name="Path 2243" d="M963.785,4022.934h-2.368a8.367,8.367,0,0,0-.919.039v-.869a7.694,7.694,0,0,0,.939.039h2.348v-.379h-2.118c-.36,0-.61.009-.839.029.02-.209.029-.42.029-.67v-.658c0-.281-.009-.461-.029-.7.26.021.469.031.849.031h2.108v-.381h-2.738a9.808,9.808,0,0,0-1.169.061v-.991a9.039,9.039,0,0,0,1.229.061h2.678a3.718,3.718,0,0,0-.059-.68h1.21a2.78,2.78,0,0,0-.071.68h2.809a9.122,9.122,0,0,0,1.228-.061v.991a9.8,9.8,0,0,0-1.169-.061h-2.868v.381h2.259c.38,0,.6-.01.839-.031a6.848,6.848,0,0,0-.029.7v.658a6.317,6.317,0,0,0,.029.67c-.219-.02-.479-.029-.8-.029h-2.3v.379H967.1c.589,0,.79-.01,1.07-.03a6.767,6.767,0,0,0-.03.91v.35a5.375,5.375,0,0,0,.869-.051v.949a6.137,6.137,0,0,0-.869-.048v.58a7.523,7.523,0,0,0,.049,1.078h-1.119v-.389h-2.209v.559c0,.9-.25,1.09-1.469,1.09-.24,0-.64-.02-.959-.039a2.858,2.858,0,0,0-.31-.991,11.062,11.062,0,0,0,1.269.09c.31,0,.389-.051.389-.23v-.479h-2.348a6.981,6.981,0,0,0-.99.049v-.93a6.873,6.873,0,0,0,.949.041h2.389v-.429h-2.867a7.36,7.36,0,0,0-1.1.048v-.949a6.694,6.694,0,0,0,1.079.051h2.888Zm-1.868-2.36v.41h1.868v-.41Zm2.948.41h2.009v-.41h-2.009Zm2.209,2.389v-.439h-2.209v.439Zm-2.209,1.279h2.209v-.429h-2.209Z" fill="#394b61"/>
      <path id="Path_2244" data-name="Path 2244" d="M975.235,4024.271a4.988,4.988,0,0,0-.79.042v-.959c-.1.248-.139.318-.269.587a2.561,2.561,0,0,0-.73-.548,5.348,5.348,0,0,0,.57-1.27h-.629l.019,4.049a.882.882,0,0,1-.21.668,1.461,1.461,0,0,1-.928.2c-.221,0-.531-.01-.831-.031a2.819,2.819,0,0,0-.209-.979,5.6,5.6,0,0,0,.889.1c.27,0,.33-.039.32-.24l-.01-2.389a5.934,5.934,0,0,1-1.47,2.119,4.237,4.237,0,0,0-.5-1.09,5.472,5.472,0,0,0,1.688-2.408h-.689a4.66,4.66,0,0,0-.84.051v-1.061a5.339,5.339,0,0,0,.9.051h1a10.744,10.744,0,0,0-1.33-1.129l.62-.6c.56.419.61.449.859.668a3.788,3.788,0,0,0,.811-.879h-1.74a6.75,6.75,0,0,0-.86.041v-1.03a7.824,7.824,0,0,0,.939.039h1.71a7.408,7.408,0,0,0,.849-.029l.541.578c-.041.051-.121.151-.221.291a9.753,9.753,0,0,1-1.4,1.569c.09.1.129.13.219.24l-.219.24h.6a6.791,6.791,0,0,0,.729-.029l.43.529a1.856,1.856,0,0,0-.119.309,6.349,6.349,0,0,0,1.638-.619,4.568,4.568,0,0,1-.819-1.03,8,8,0,0,1-.77.879,3.35,3.35,0,0,0-.759-.68,5.1,5.1,0,0,0,1.489-1.927,2.87,2.87,0,0,0,.25-.76l1.039.2a3.187,3.187,0,0,0-.15.35c-.049.131-.089.22-.169.39h2.069a8.964,8.964,0,0,0,1.058-.05v1.019a5.19,5.19,0,0,0-.718-.039,4.435,4.435,0,0,1-.99,1.568,6.625,6.625,0,0,0,1.918.561,3.688,3.688,0,0,0-.46,1.039,7.559,7.559,0,0,1-2.248-.93,5.378,5.378,0,0,1-.929.51l1.019.01a.69.69,0,0,0-.009.131c-.01.049-.021.109-.031.179,0,.049-.01.071-.02.161-.01.138-.03.209-.05.388h1.419a4.586,4.586,0,0,0,.79-.039,3.565,3.565,0,0,0-.04.44,12.135,12.135,0,0,1-.35,2.507c-.2.61-.46.77-1.239.77a10.135,10.135,0,0,1-1.06-.068,3.368,3.368,0,0,0-.23-1.041,6.439,6.439,0,0,0,1.15.14c.32,0,.42-.119.53-.629a7.355,7.355,0,0,0,.13-1.131h-1.31a4.367,4.367,0,0,1-2.8,2.879,4.062,4.062,0,0,0-.619-.888,3.543,3.543,0,0,0,2.339-1.991Zm1.02-.949a6.875,6.875,0,0,0,.05-.75.2.2,0,0,0-.01-.08c-.38.16-.59.231-1.14.41a3.6,3.6,0,0,0-.329-.6c-.131.42-.211.631-.35.99a7.127,7.127,0,0,0,.819.029Zm.2-3.617a3.517,3.517,0,0,0,.859,1.078,2.767,2.767,0,0,0,.709-1.078Z" fill="#394b61"/>
      <path id="Path_2245" data-name="Path 2245" d="M985.686,4022.742c0,.442,0,.551.019.8-.1,0-.43-.01-.978-.02h-1.66a6.95,6.95,0,0,1-.889,3.557,3.158,3.158,0,0,0-.89-.789c.62-1.059.79-2.078.79-4.777a12.061,12.061,0,0,0-.051-1.389c.33.02.58.029,1.06.029h1.619c.46,0,.7-.009,1.01-.029-.021.209-.03.51-.03.9Zm-4.038-4.437a7.353,7.353,0,0,0,1.08.05h2.159a6.711,6.711,0,0,0,1.089-.05v1.121a6.509,6.509,0,0,0-1.04-.051h-2.268a6.842,6.842,0,0,0-1.02.051Zm3.008,4.267v-1.478H983.1v.72c0,.379,0,.469-.011.758ZM987.4,4022a9.433,9.433,0,0,1-.44,2.728,5.527,5.527,0,0,1-.869,1.62,8.151,8.151,0,0,1-.641.75,3.21,3.21,0,0,0-.829-.831,4.566,4.566,0,0,0,1.419-2.208,14.161,14.161,0,0,0,.32-3.7c0-.939-.009-1.25-.04-1.58a9.353,9.353,0,0,0,3.728-.84l.57,1.02a4.3,4.3,0,0,0-.46.131,15.487,15.487,0,0,1-2.728.609v1.248h2.268a5.271,5.271,0,0,0,.97-.058v1.158a5.7,5.7,0,0,0-.88-.049h-.149v3.957a6.35,6.35,0,0,0,.059,1.08h-1.179a7.805,7.805,0,0,0,.06-1.09V4022Z" fill="#394b61"/>
      <path id="Path_2246" data-name="Path 2246" d="M995.446,4018.346c-.11.109-.11.109-.489.529a3.213,3.213,0,0,1-.371.369v1.449a3.835,3.835,0,0,0,.051.791h-1.119a2.775,2.775,0,0,0,.049-.63v-.29a2.638,2.638,0,0,1,.04-.49,5.445,5.445,0,0,1-.99.7,2.836,2.836,0,0,0-.529-.869,5.94,5.94,0,0,0,2.359-2.019Zm-1.1,7.306c-.5,0-.69.01-1,.03.019-.151.029-.51.029-.8v-2.108c-.01-.8-.01-.8-.029-1.029a6.781,6.781,0,0,0,1.009.039h4.877c.56,0,.73-.01,1-.029-.02.24-.03.529-.03.969v2.019c0,.42.01.75.03.94a1.3,1.3,0,0,0-.21-.01c-.229-.02-.369-.02-.548-.02h-.711a8.078,8.078,0,0,0,2.659.619,5.043,5.043,0,0,0-.61.959,8.322,8.322,0,0,1-3.258-1.148l.49-.43h-2.6l.56.43a8.024,8.024,0,0,1-3.168,1.148,3.8,3.8,0,0,0-.609-.919,8.179,8.179,0,0,0,2.607-.659Zm.069-2.808h4.748v-.371h-4.748Zm0,1.029h4.748v-.391h-4.748Zm0,1.008h4.748v-.369h-4.748Zm3.109-5.776c-.939.049-.939.049-1.769.081a2.753,2.753,0,0,0-.279-.78h.378a30.033,30.033,0,0,0,3.149-.23,5.15,5.15,0,0,0,1.17-.27l.808.809c-.568.109-1.728.26-2.437.32v.449h1.9a5.7,5.7,0,0,0,.911-.048v.918a7.073,7.073,0,0,0-.911-.04h-1.9v.35h1.568a6.867,6.867,0,0,0,.91-.039v.9a7.582,7.582,0,0,0-.91-.039h-3.877c-.39,0-.75.02-.92.039v-.9a9.175,9.175,0,0,0,.92.039h1.289v-.35h-1.619a7.22,7.22,0,0,0-.92.04v-.918a7.342,7.342,0,0,0,.92.048h1.619Z" fill="#394b61"/>
      <path id="Path_2247" data-name="Path 2247" d="M1004.467,4021.154a2.292,2.292,0,0,0,.06-.541v-.259a4.04,4.04,0,0,1,.039-.43,5.786,5.786,0,0,1-1.128.76,3.227,3.227,0,0,0-.53-.879,6.2,6.2,0,0,0,2.488-1.989l1.04.409c-.06.07-.06.07-.15.17l-.21.22a6.736,6.736,0,0,1-.529.5v1.44a3.467,3.467,0,0,0,.049.6Zm6.5-2.34a5.641,5.641,0,0,0,1.07-.148l.07,1.008c-.15-.01-.21-.01-.33-.01-.22,0-.37.01-.75.041l-1.689.15a3.551,3.551,0,0,0,.9.649,2.024,2.024,0,0,0,.749.24.193.193,0,0,0,.17-.1.567.567,0,1,1,1.079-.221,2.553,2.553,0,0,1-.369.971.827.827,0,0,1-.65.279c-.029,0-.1,0-.22-.01-.01.24-.01.469-.01.76v2.068c0,.44.021.84.04,1.069-.21-.02-.65-.03-1.049-.03h-.679a6.814,6.814,0,0,0,2.918.731,3.976,3.976,0,0,0-.62.929,8.372,8.372,0,0,1-3.248-1.15l.7-.51h-2.9l.649.52a8.4,8.4,0,0,1-3.168,1.15,3.266,3.266,0,0,0-.609-.89,7.907,7.907,0,0,0,2.878-.78h-.679c-.42,0-.83.01-1.06.03.021-.209.04-.6.04-1v-2.2c0-.47-.009-.759-.03-1.039a8.776,8.776,0,0,0,1.009.03h4.728a4.124,4.124,0,0,1-1.769-1.4l-1.15.1a4.092,4.092,0,0,0-.909.119l-.08-1.02c.109.01.27.01.449.01.131,0,.291-.01.5-.019l.7-.059c-.08-.182-.1-.25-.19-.5-.04-.141-.05-.16-.1-.34a1.815,1.815,0,0,0-.07-.221l1.11-.109a2.791,2.791,0,0,0,.339,1.078l1.23-.1a5.789,5.789,0,0,0-.86-.659l.75-.4a5.4,5.4,0,0,1,.99.76l-.45.269Zm-5.727,3.709h4.707v-.39h-4.707Zm0,1.09h4.707v-.381h-4.707Zm0,1.11h4.707v-.4h-4.707Z" fill="#394b61"/>
      <path id="Path_2248" data-name="Path 2248" d="M1017.7,4024.412c-.049.131-.059.18-.109.34a7.441,7.441,0,0,1-1.01-1.41c.051.679.061.82.061,1.14v1.649a5.91,5.91,0,0,0,.059,1.039h-1.159a6.445,6.445,0,0,0,.07-1.059v-1.289c0-.4.02-.869.039-1.2a6.9,6.9,0,0,1-1.3,2.248,3.008,3.008,0,0,0-.51-1.029,6.571,6.571,0,0,0,1.08-1.479,8.619,8.619,0,0,0,.529-1.131h-.519a5.268,5.268,0,0,0-.9.051v-1.058a5.152,5.152,0,0,0,.9.048h.67V4018.9a6.145,6.145,0,0,0-.051-.978h1.14a5.849,5.849,0,0,0-.05.969v2.378h.468a5.091,5.091,0,0,0,.771-.039v1.039a5.951,5.951,0,0,0-.79-.041h-.359a5.264,5.264,0,0,0,1.289,1.53,5.825,5.825,0,0,0-.28.56,6.533,6.533,0,0,0,.919-.14l2.339-.52V4019.1a6.845,6.845,0,0,0-.06-1.16h1.21a7.061,7.061,0,0,0-.06,1.15v4.336a6.042,6.042,0,0,0,.85-.25l.209,1.141a7.293,7.293,0,0,0-.959.179l-.1.02v1.459a7.318,7.318,0,0,0,.06,1.179h-1.21a7.236,7.236,0,0,0,.06-1.189v-1.209l-2.119.48c-.439.1-.729.18-.949.25Zm-2.887-5.937a12.233,12.233,0,0,1,.609,2.16l-.839.359a8.062,8.062,0,0,0-.62-2.139Zm3.427.349a12.015,12.015,0,0,1-.8,2.17l-.729-.381a8.3,8.3,0,0,0,.689-2.158Zm.5,2.27a9.119,9.119,0,0,1,1.74,1.469l-.68.81a8.625,8.625,0,0,0-1.76-1.539Zm.31-2.5a9.712,9.712,0,0,1,1.749,1.468l-.679.84a8.461,8.461,0,0,0-1.769-1.539Z" fill="#394b61"/>
      <path id="Path_2249" data-name="Path 2249" d="M955.4,4040.342a2.593,2.593,0,0,1,.678,1.758,2.63,2.63,0,1,1-5.259,0,2.58,2.58,0,0,1,.87-1.95,2.663,2.663,0,0,1,1.763-.677A2.584,2.584,0,0,1,955.4,4040.342Z" fill="#0065c1"/>
      <path id="Path_2250" data-name="Path 2250" d="M961.957,4040.352a8.269,8.269,0,0,0-1.039.048v-.468h-.9a5.375,5.375,0,0,0,.05-.76v-.369a5.051,5.051,0,0,0-.041-.74,9.089,9.089,0,0,0,1.1.048h2.658v-.058a3.827,3.827,0,0,0-.049-.651h1.229a2.861,2.861,0,0,0-.05.641v.068h2.769a9.994,9.994,0,0,0,1.128-.048,5.193,5.193,0,0,0-.039.74v.369a5.654,5.654,0,0,0,.039.75h-.888v.478a8.919,8.919,0,0,0-1.07-.048h-1.079a4.092,4.092,0,0,0,.929.759,4.5,4.5,0,0,0,.739-.72l.821.439a8.5,8.5,0,0,1-.76.69,8.4,8.4,0,0,0,1.629.5,4.046,4.046,0,0,0-.459.97,9.161,9.161,0,0,1-1.25-.5v.949a9.014,9.014,0,0,0,.04.991c-.271-.022-.521-.032-.84-.032a4.479,4.479,0,0,0,.67.52,6.579,6.579,0,0,0,1.669.77,4.455,4.455,0,0,0-.619.929,7.811,7.811,0,0,1-2.559-1.7l.59-.52h-1.34v1.3c0,.791-.24.94-1.449.94-.16,0-.21,0-.68-.02a3.192,3.192,0,0,0-.33-.988,9.7,9.7,0,0,0,1.08.08c.28,0,.34-.031.34-.191v-1.12h-1.729l.62.52a5.772,5.772,0,0,1-2.309,1.67,3.138,3.138,0,0,0-.631-.83,4.634,4.634,0,0,0,2.119-1.36c-.269.01-.449.02-.679.032a8.677,8.677,0,0,0,.041-.981v-.978a12.88,12.88,0,0,1-1.22.549,2.821,2.821,0,0,0-.47-.93,8.839,8.839,0,0,0,1.449-.539,5,5,0,0,0-.769-.69l.769-.48a8.931,8.931,0,0,1,.79.721,6.56,6.56,0,0,0,.919-.75Zm1.529-.78a2.977,2.977,0,0,0,.28-.6l1.059.2c-.12.23-.149.279-.21.4h2.259c.319,0,.579-.011.859-.031v-.58H961.1v.58c.289.02.489.031.859.031Zm-1.04,2.319v.459h3.939v-.45l-.031-.009Zm0,1.7H966.4v-.5h-3.949Zm1.65-3.238a5.79,5.79,0,0,1-.7.769h1.918a5.579,5.579,0,0,1-.7-.769Z" fill="#394b61"/>
      <path id="Path_2251" data-name="Path 2251" d="M978.844,4040.271a7.863,7.863,0,0,0,.849-.031c-.031.17-.031.17-.089.68-.122.84-.281,1.029-.96,1.07v2.3a9.754,9.754,0,0,0,.04,1.059c-.21-.02-.651-.03-1.06-.03h-.479a6.782,6.782,0,0,0,2.728.651,4.816,4.816,0,0,0-.62.9,8.1,8.1,0,0,1-3.259-1.138l.551-.411h-2.6l.5.411a8.183,8.183,0,0,1-3.158,1.148,4,4,0,0,0-.609-.869,7.805,7.805,0,0,0,2.668-.69h-.469c-.43,0-.83.01-1.061.03.021-.18.041-.569.041-1v-1.86c-.269.1-.41.139-.8.26l-.08-.18a2.438,2.438,0,0,0-.4-.711,4.963,4.963,0,0,0,2.289-.859h-1.109c-.211,0-.551.01-.83.021a6.138,6.138,0,0,0,.58-1.82,8.3,8.3,0,0,0,.839.031h1.309c.02-.24.03-.24.03-.351h-1.62a5.787,5.787,0,0,0-.959.051v-.869a6.067,6.067,0,0,0,.959.048h1.651a3.835,3.835,0,0,0-.041-.629h1.07a5.3,5.3,0,0,0-.041.629h1.119a2.834,2.834,0,0,0-.049-.629h1.089a2.922,2.922,0,0,0-.05.629h1.36a9.378,9.378,0,0,0,.979-.048,5.1,5.1,0,0,0-.04.779v.4a4.653,4.653,0,0,0,.03.709c-.32-.019-.62-.029-.979-.029h-1.35v.349Zm-6.477-.349a2.47,2.47,0,0,1-.12.349h1.179c.051-.14.07-.2.121-.349Zm.52,2.607H977.6v-.349h-4.717Zm0,1.01H977.6v-.369h-4.717Zm0,1.01H977.6v-.369h-4.717Zm2.937-3.549H974.1a2.178,2.178,0,0,1-.449.49h2.168Zm-1.279-1.078c-.039.148-.049.2-.09.349h1.369v-.349Zm.131-1.041c0,.14-.01.191-.02.351h1.168v-.351Zm2.138.351h1.26v-.351h-1.26Zm1.03,2.258a1.119,1.119,0,0,0-.1-.269,2.272,2.272,0,0,0,.56.09c.2,0,.239-.041.269-.311h-1.759v.49h1.03Z" fill="#394b61"/>
      <path id="Path_2252" data-name="Path 2252" d="M955.4,4059.928a2.593,2.593,0,0,1,.678,1.758,2.63,2.63,0,1,1-5.259,0,2.579,2.579,0,0,1,.87-1.95,2.662,2.662,0,0,1,1.763-.677A2.584,2.584,0,0,1,955.4,4059.928Z" fill="#0065c1"/>
      <path id="Path_2253" data-name="Path 2253" d="M959.868,4060.9a4.327,4.327,0,0,0,.81.051h.75a4.138,4.138,0,0,0,.759-.051,9.792,9.792,0,0,0-.041,1.09v2.18a1.424,1.424,0,0,0,.68.67,5.334,5.334,0,0,0,2.089.25,31.567,31.567,0,0,0,4.308-.211,4.38,4.38,0,0,0-.3,1.18c-1.009.039-2.159.07-3.019.07a10.926,10.926,0,0,1-3.038-.211,2.378,2.378,0,0,1-1.268-.908,10.177,10.177,0,0,1-1.141.939,2.4,2.4,0,0,0-.319.26l-.49-1.141a6.575,6.575,0,0,0,1.45-.988v-2.148h-.551a3.761,3.761,0,0,0-.679.049Zm.909-3.677a11.659,11.659,0,0,1,1.77,1.83l-.87.769a9.9,9.9,0,0,0-1.7-1.849Zm8.066,4.558a1.3,1.3,0,0,0-.239.19c-.311.26-.86.66-1.331.99a5.679,5.679,0,0,0,1.81.8,4.274,4.274,0,0,0-.55,1.029,6.138,6.138,0,0,1-2.778-1.849l.01.88c-.9.3-1.749.549-2.708.77a1.336,1.336,0,0,0-.281.09l-.27-1.071a3.135,3.135,0,0,0,.59-.08v-5.2a8.461,8.461,0,0,0-.039-.949,7.707,7.707,0,0,0,.949.041h3.248a7.884,7.884,0,0,0,.969-.041,7.348,7.348,0,0,0-.049,1.019v2.139c0,.391.01.58.019.779Zm-1.709-2.808v-.59h-3v.59Zm-3,1.51h3v-.622h-3Zm0,.908v1.92c.859-.221.979-.25,1.549-.44a4.989,4.989,0,0,1-.81-1.48Zm1.8,0a3.026,3.026,0,0,0,.6.939,8.705,8.705,0,0,0,1.239-.939h-1.838Z" fill="#394b61"/>
      <path id="Path_2254" data-name="Path 2254" d="M976.934,4058.838a2.732,2.732,0,0,0-.32-.02,7.946,7.946,0,0,1-.249,1.071h.8c-.019-.7-.019-.7-.029-2.03a6.148,6.148,0,0,0-.031-.72h1.04a7.685,7.685,0,0,0-.05,1.269c0,.35.01,1.18.019,1.481h.58a6.12,6.12,0,0,0,1.119-.061v1.049a8.411,8.411,0,0,0-1.119-.049h-.549c.049.779.11,1.309.19,1.828a6.518,6.518,0,0,0,.559-1.42l.81.51c-.06.121-.141.3-.221.481a11.3,11.3,0,0,1-.849,1.648,4.453,4.453,0,0,0,.34.82c.089.16.131.209.15.209.07,0,.141-.468.17-1.258a3.622,3.622,0,0,0,.789.54,5.011,5.011,0,0,1-.289,1.459.691.691,0,0,1-.62.46c-.419,0-.89-.48-1.239-1.291a8.532,8.532,0,0,1-1.61,1.481,2.958,2.958,0,0,0-.629-.77,7.682,7.682,0,0,0,.68-.48h-1.529v.65h-.9c.021-.291.041-.541.041-.869v-2.709c0-.439-.009-.56-.03-.89a4.253,4.253,0,0,0,.63.031h1.589a5.868,5.868,0,0,0,.649-.031c-.019.23-.019.38-.019.89v2.569a8.924,8.924,0,0,0,.789-.879,13.983,13.983,0,0,1-.4-2.979h-3.708v4.428a7.173,7.173,0,0,0,.05,1.058h-1.009a9.826,9.826,0,0,0,.049-1.07v-.748c-.439.139-.909.289-1.259.389a3.955,3.955,0,0,0-.669.2l-.23-1.08a2.9,2.9,0,0,0,.55-.08v-5.567a4.278,4.278,0,0,0-.441.039v-1.058a5.794,5.794,0,0,0,.84.049h1.57a4.943,4.943,0,0,0,.87-.049v.609a3.78,3.78,0,0,0,.619.039h.479v-.058a4.213,4.213,0,0,0-.059-.811h1.069a4.343,4.343,0,0,0-.05.811v.058h.36a6.16,6.16,0,0,0,.709-.029Zm-5.047.689h.689v-1.168h-.689Zm0,1.959h.689v-1.068h-.689Zm0,2.231c.33-.08.42-.112.689-.192v-1.148h-.689Zm2.459-3.828c-.05-.3-.12-.67-.22-1.08-.149.009-.19.009-.34.029v-.459c-.14-.01-.181-.01-.3-.02v1.53Zm.49,4.326h1.129v-.709h-1.129Zm.01-1.488h1.119v-.641h-1.119Zm.13-3.918c.059.289.12.65.17,1.08h.418a7.218,7.218,0,0,0,.221-1.08Zm4.038-1.28a7.944,7.944,0,0,1,.8,1.51l-.789.459a5.219,5.219,0,0,0-.74-1.578Z" fill="#394b61"/>
      <path id="Path_2255" data-name="Path 2255" d="M984.467,4060.768a6.868,6.868,0,0,0-.981.05v-.48a10.723,10.723,0,0,1-1.629.82,4.419,4.419,0,0,0-.579-1.031,7.7,7.7,0,0,0,4.077-2.928H986.6a5.876,5.876,0,0,0,1.539,1.539,8.28,8.28,0,0,0,2.648,1.35,5.067,5.067,0,0,0-.54,1.1,10.414,10.414,0,0,1-1.749-.879v.509a6.675,6.675,0,0,0-.979-.05h-1.02v.968h2.528a7.28,7.28,0,0,0,1.09-.058v1.109a7.749,7.749,0,0,0-1.1-.06h-2.519v2.238h2.719a9.135,9.135,0,0,0,1.179-.061v1.151a9.032,9.032,0,0,0-1.2-.071h-6.316a9.635,9.635,0,0,0-1.238.071V4064.9a10.5,10.5,0,0,0,1.238.061h2.509v-2.238h-2.368a8.068,8.068,0,0,0-1.081.06v-1.109a7.569,7.569,0,0,0,1.09.058h2.359v-.968Zm-.71,2.048a11.581,11.581,0,0,1,.8,1.659l-1,.4a7.287,7.287,0,0,0-.789-1.658Zm.68-2.988,3.1.01c.09,0,.09,0,.239-.01a7.828,7.828,0,0,1-1.8-1.68,7.031,7.031,0,0,1-1.749,1.68Zm4.777,3.4c-.13.228-.13.228-.5.959-.03.06-.069.13-.409.709l-.94-.35a8.341,8.341,0,0,0,.789-1.719Z" fill="#394b61"/>
      <path id="Path_2256" data-name="Path 2256" d="M1004.687,4058.678a5.921,5.921,0,0,1-1.019,1.121,3.957,3.957,0,0,0-.75-.721,4.066,4.066,0,0,0,1.189-1.238,2.927,2.927,0,0,0,.36-.811l1.08.2c-.211.41-.211.41-.28.531h1.279a6.074,6.074,0,0,0,.97-.061v.821a3.761,3.761,0,0,0,.888-1.471l1,.271c-.019.039-.09.19-.22.45h1.83a7.367,7.367,0,0,0,1.1-.061v1.029a8.006,8.006,0,0,0-1.05-.049h-.78a5,5,0,0,1,.391.7l-.99.308a5.96,5.96,0,0,0-.49-1.008h-.549a5.324,5.324,0,0,1-.6.709,2.808,2.808,0,0,0-.04.51h2.259a7.428,7.428,0,0,0,1.09-.051v1a8.56,8.56,0,0,0-1.081-.06h-2.268v.65h2.919a8.3,8.3,0,0,0,1.158-.06v1.039a9.592,9.592,0,0,0-1.148-.059h-.88v.649h.79a9.912,9.912,0,0,0,1.159-.059v1.029a9.323,9.323,0,0,0-1.169-.06h-.78v1.388c0,.481-.15.741-.52.87a4.2,4.2,0,0,1-1.179.1c-.21,0-.38-.01-.75-.021a3.753,3.753,0,0,0-.3-1.039,10.646,10.646,0,0,0,1.25.07c.359,0,.439-.039.439-.24v-1.129h-3.258a10.371,10.371,0,0,1,1.379,1.3l-.9.689a7.175,7.175,0,0,0-1.379-1.408l.749-.58h-1.219a9.05,9.05,0,0,0-1.16.06v-1.029a9.737,9.737,0,0,0,1.15.059h4.637v-.649h-4.687a10.333,10.333,0,0,0-1.169.059v-1.039a8.158,8.158,0,0,0,1.149.06h2.678v-.65h-1.939a9.887,9.887,0,0,0-1.1.051v-.991a7.869,7.869,0,0,0,1.109.051h1.928a2.352,2.352,0,0,0-.059-.58h.729a2.65,2.65,0,0,0-.53-.43c.1-.089.14-.119.22-.2-.139-.01-.37-.021-.54-.021h-.51a4.536,4.536,0,0,1,.35.711l-.979.3a5.259,5.259,0,0,0-.41-1.01Z" fill="#394b61"/>
    </g>
  </g>
</svg>
