<svg xmlns="http://www.w3.org/2000/svg" width="17.278" height="20.559" viewBox="0 0 17.278 20.559">
  <g id="Group_2" data-name="Group 2" transform="translate(0.5 0.5)">
    <rect id="Rectangle_8" data-name="Rectangle 8" width="16.278" height="11.839" rx="2" transform="translate(0 7.721)" fill="none" stroke="#fff" stroke-linejoin="round" stroke-width="1"/>
    <path id="Path_5" data-name="Path 5" d="M222,458.4v-2.115A5.286,5.286,0,0,1,227.286,451h0a5.286,5.286,0,0,1,5.286,5.286" transform="translate(-219.357 -451)" fill="none" stroke="#fff" stroke-linejoin="round" stroke-width="1"/>
    <path id="Path_6" data-name="Path 6" d="M229.607,470.059a2.108,2.108,0,0,0-.55,3.876v1.879a1.057,1.057,0,0,0,1.057,1.057h0a1.057,1.057,0,0,0,1.057-1.057v-1.879a2.11,2.11,0,0,0-1.565-3.876Z" transform="translate(-222.185 -459.956)" fill="#fff"/>
  </g>
</svg>
