<svg xmlns="http://www.w3.org/2000/svg" width="53.97" height="145.432" viewBox="0 0 53.97 145.432">
  <g id="Group_2316" data-name="Group 2316" transform="translate(-5297.694 -2669.751)">
    <g id="Group_2315" data-name="Group 2315" transform="translate(5297.694 2669.751)">
      <path id="Path_3296" data-name="Path 3296" d="M5325.012,2669.758c4.057-.176,8.092,3.287,7.414,7.651,1.15.071.932,2.132.886,2.873s-.236,2.769-1.262,2.69a10.145,10.145,0,0,1-.079,2.115c-.134.675-.6,1.072-.709,1.763a7.5,7.5,0,0,1-.227,2.052,4.133,4.133,0,0,1-1.274,1.4,36.821,36.821,0,0,1-3.523,2.225,1.743,1.743,0,0,1-1.777.155,14.624,14.624,0,0,1-2.044-1.773,6.129,6.129,0,0,1-1.141-1.5c-.446-.888-.337-1.776-.721-2.643-.2-.449-.377-.919-.547-1.377a13.6,13.6,0,0,0-.439-1.5,1.62,1.62,0,0,1-.967-.837,6.283,6.283,0,0,1-.395-1.46c-.055-.6-.2-2.978.486-3.027a5.646,5.646,0,0,0,.184-1.515,12.628,12.628,0,0,1,.259-1.874,8.576,8.576,0,0,1,.639-2.179A6.107,6.107,0,0,1,5325.012,2669.758Z" transform="translate(-5300.814 -2669.752)" fill="#008fd4"/>
      <path id="Path_3297" data-name="Path 3297" d="M5338.635,2754.528c0,1.661.059,3.678.059,6.466s-.237,9.255-.415,11.629a43.539,43.539,0,0,0,.415,8.366c.356,2.255,1.053,10.1,1.365,12.9a53.056,53.056,0,0,1,.134,8.276,24.7,24.7,0,0,1-.624,4.538,6.8,6.8,0,0,0-.266,2.315c0,.578-.045,1.112-.223,1.246a1.586,1.586,0,0,1-.846.267,24.542,24.542,0,0,0,2.047,2.314,14.529,14.529,0,0,0,2.892,2.4c.89.4,1.692.891,1.78,1.469a1.538,1.538,0,0,1-.934,1.6c-.712.311-3.472.176-4.716.176a12.157,12.157,0,0,1-4.717-1.112h-3.071a1.04,1.04,0,0,1-.934-.889c0-.357,0-.624-.045-1.335a18.737,18.737,0,0,1-.623-2.76,12.21,12.21,0,0,1,.178-3.738c-.712-.267-.533-1.335-.771-1.869a21.821,21.821,0,0,1-.771-3.026,20.632,20.632,0,0,1,.118-7.119,12.2,12.2,0,0,0-.237-5.755,31.209,31.209,0,0,1-1.305-5.4c-.237-2.018-.475-5.873-1.128-9.611s-1.186-7.654-1.957-11.927-1.492-6.81-2.2-9.612a85.238,85.238,0,0,0-1.572,9.671,63.887,63.887,0,0,1-1.39,8.782c-.415,2.433-.554,6.526-.732,9.374a103.094,103.094,0,0,0-.218,11.1,52.777,52.777,0,0,1-.177,8.247c-.178,1.3-1.009,4.035-1.009,5.043a8.157,8.157,0,0,0,.772,2.847,4.348,4.348,0,0,1-.417,2.848,7.9,7.9,0,0,1-.118,3.383c-.119.652-.415.948-.712.948s-2.016,0-2.966.119a16.693,16.693,0,0,1-5.323,1.306c-1.425.06-3.5-.06-4.866-.06s-1.542-.593-1.423-1.483,1.186-1.305,1.839-1.543a7.551,7.551,0,0,0,2.313-1.722,23.79,23.79,0,0,0,1.72-2.55,1.454,1.454,0,0,1-.712-1.067c-.059-.476-.059-2.907,0-4.391s.09-8.1.178-9.879.534-3.381.534-4.894-.178-3.471-.267-5.341,0-5.7,0-8.187.458-8.01.281-10.947-.927-8.018-1.105-11.667c-1.257,0-3.038.189-3.145-1.18-.078-1.022.18-1.532.1-3.287-.456-.19-.877-.25-1.383-.438a1.669,1.669,0,0,1-.833-.763c-1.262-1.908-.962-6.136-1.327-7.274a17.388,17.388,0,0,1-.314-3.605c-.094-.941-.5-2.97-.73-4.717a16.277,16.277,0,0,0-.47-2.243,9.3,9.3,0,0,1-.678-2.431c.006-.538.446-1,.507-1.495.057-.471-.28-1.143-.255-1.741a9.8,9.8,0,0,1,.392-1.83c.137-.581.121-1.222.24-1.816.515-2.548,1.358-5.044,1.952-7.621.65-2.819,1.182-5.72,1.6-8.586.184-1.275.426-2.518.638-3.788.192-1.145.331-2.415,1.426-3.008,2.063-1.119,4.569-1.986,6.886-2.958a20.822,20.822,0,0,0,3.3-1.564c.839-.547,1.875-1.951,2.914-2.248a8.663,8.663,0,0,0-.23,1.466,6.678,6.678,0,0,0-1.285,2.574,36.01,36.01,0,0,0-.332,8.2c.251,3.058,1.912,7.786,3.2,11.153a77.955,77.955,0,0,1,1.028-9.842,29.381,29.381,0,0,1,1.809-5.429,12.24,12.24,0,0,1-1.569-1.7,10.476,10.476,0,0,1,1.224-1.273,2.429,2.429,0,0,1,2.334-.18,14.809,14.809,0,0,1,1.6,1.6c-.447.59-1.03,1.186-1.481,1.677a28.21,28.21,0,0,1,1.245,5.553,71.521,71.521,0,0,1-.225,8.391,31.773,31.773,0,0,0,2.507-6.562c.6-2.466,1.4-7.5,1.541-8.919a53.839,53.839,0,0,0,.212-5.95c.921.058,1.934,1.027,2.777,1.433,1.174.564,2.447.9,3.583,1.422a20.488,20.488,0,0,0,3.2,1.276,6.387,6.387,0,0,1,2.926,1.245c.776.765.727,2.042,1.254,3,.542.983,1.071,2.008,1.7,3a22.449,22.449,0,0,1,1.893,3.218c.471,1.1.736,2.273,1.151,3.414.824,2.26,1.906,4.424,2.888,6.7a17.861,17.861,0,0,1,1.417,7.276c-.015,2.207-.208,3.927-1.649,5.5-1.277,1.394-3.145,3.678-4.128,4.586a30.474,30.474,0,0,0-3.37,3.924c-.516.809-1.54,2.584-1.767,2.831s-.575.34-.872-.159a3.259,3.259,0,0,1-.631.854c.57,3.162.288,4.782.768,6.811.208.883.091,4.313.143,4.733S5339.838,2754.447,5338.635,2754.528Zm-31.713-31.776c-.062.377-.239.865-.276,1.245a7.684,7.684,0,0,1-.33,2.318,6.654,6.654,0,0,0-.2,2.583c.04.9-.029,1.774-.044,2.622a9.4,9.4,0,0,0,.16,1.517,9.555,9.555,0,0,1-.013,1.259c.226-.849.353-1.789.493-2.588.314-1.8.32-3.622.6-5.433a13.182,13.182,0,0,0,.147-2.682c-.022-.453-.064-.771-.106-1.228a14.7,14.7,0,0,1-.081-1.859C5307.115,2721.169,5307.046,2721.985,5306.922,2722.752Zm32.442-2.486c-.229.9-.275,1.833-.5,2.749a9.174,9.174,0,0,0-.262,2.672c.047,1.093-.062,2.164-.016,3.27.04.882-.194,1.789-.1,2.607.59-.705,1.013-1.5,1.652-2.195a18.738,18.738,0,0,0,1.642-2.009c.229-.333.421-.67.666-1,.345-.459.2-.587.175-1.1-.021-.38.211-.872.158-1.159-.049-.263-.488-.635-.653-.877a8.887,8.887,0,0,1-1.061-2.448c-.265-.85-.853-1.63-1.107-2.482C5339.87,2718.544,5339.46,2719.893,5339.364,2720.265Z" transform="translate(-5297.694 -2673.096)" fill="#008fd4"/>
      <g id="Group_2314" data-name="Group 2314" transform="translate(19.87 43.351)">
        <path id="Path_3298" data-name="Path 3298" d="M5341.237,2736.23s-8.373-14.376-8.619-14.839a1.027,1.027,0,0,0-1.658-.138c-.541.508-8.615,7.215-9.187,7.691a1.386,1.386,0,0,0-.39,1.932c.45.662,6.367,10.084,6.367,10.084a5.057,5.057,0,0,1,1.787-1.127c.617-.315.989-.431,1.232-.6a2.687,2.687,0,0,1,1.671-.2c.341.011.763.045,1.338.021s1.311.6,1.886.573,1.17.343,1.709.058a7.5,7.5,0,0,0,1.14-.915c-.021-.472.438-.657.821-1.006C5339.791,2737.342,5341.237,2736.23,5341.237,2736.23Z" transform="translate(-5321.139 -2720.901)" fill="#fff"/>
        <path id="Path_3299" data-name="Path 3299" d="M5336.025,2754.171a.848.848,0,0,0,1.183.052c.531-.442,5.584-5.489,5.584-5.489l-.305-.38c-.431.334-1.073.651-1.428.929a5.045,5.045,0,0,0-1.272,1.5,6.945,6.945,0,0,1-1.4,1.635c-.4.384-1.015.778-1.267,1.025S5336.708,2754.193,5336.025,2754.171Z" transform="translate(-5323.408 -2725.087)" fill="#fff"/>
      </g>
      <path id="Path_3300" data-name="Path 3300" d="M5331.694,2689.911a7.5,7.5,0,0,1-.227,2.052,4.13,4.13,0,0,1-1.275,1.4,36.832,36.832,0,0,1-3.523,2.226,1.743,1.743,0,0,1-1.777.155,14.614,14.614,0,0,1-2.044-1.773,6.127,6.127,0,0,1-1.141-1.5c-.446-.887-.337-1.776-.72-2.643" transform="translate(-5301.246 -2672.813)" fill="none" stroke="#e40080" stroke-width="0.093"/>
      <path id="Path_3301" data-name="Path 3301" d="M5320.465,2691.615a8.615,8.615,0,0,0-.231,1.466,6.693,6.693,0,0,0-1.286,2.574,36.081,36.081,0,0,0-.331,8.2c.251,3.058,1.912,7.785,3.2,11.153a78.145,78.145,0,0,1,1.028-9.842,29.452,29.452,0,0,1,1.81-5.429,12.206,12.206,0,0,1-1.568-1.7,10.483,10.483,0,0,1,1.223-1.273,2.428,2.428,0,0,1,2.334-.18,14.891,14.891,0,0,1,1.6,1.6c-.447.59-1.031,1.186-1.481,1.677a28.356,28.356,0,0,1,1.245,5.553,71.673,71.673,0,0,1-.226,8.391,31.777,31.777,0,0,0,2.508-6.562c.6-2.467,1.4-7.5,1.54-8.919a53.729,53.729,0,0,0,.213-5.95,4.832,4.832,0,0,0-.8-.757,1.969,1.969,0,0,1-.152.558,4.137,4.137,0,0,1-1.274,1.4,36.944,36.944,0,0,1-3.523,2.225,1.744,1.744,0,0,1-1.777.155,14.613,14.613,0,0,1-2.044-1.773,6.117,6.117,0,0,1-1.141-1.5,5.047,5.047,0,0,1-.41-1.481A4.076,4.076,0,0,0,5320.465,2691.615Z" transform="translate(-5300.871 -2673.021)" fill="#fff"/>
    </g>
    <path id="Path_3302" data-name="Path 3302" d="M5306.334,2748.322a14.441,14.441,0,0,0-4.539.591,1.923,1.923,0,0,0-1.255,1.287,4.487,4.487,0,0,1,2.35-.862,19.8,19.8,0,0,1,3.528-.285Z" transform="translate(-0.434 -11.979)" fill="#fff"/>
    <path id="Path_3303" data-name="Path 3303" d="M5346.015,2749.684c-.6-.788-3.645-5.691-3.927-7.358.5.713,4.092,6.039,4.558,6.5A3.242,3.242,0,0,1,5346.015,2749.684Z" transform="translate(-6.769 -11.065)" fill="#fff"/>
  </g>
</svg>
