<svg xmlns="http://www.w3.org/2000/svg" width="670.958" height="153.136" viewBox="0 0 670.958 153.136">
  <g id="Group_2324" data-name="Group 2324" transform="translate(-363 -1555)">
    <text id="私たちの挑戦" transform="translate(544 1680)" fill="#008fd4" font-size="50" font-family="HiraKakuStdN-W7, Hiragino Sans" letter-spacing="0.08em"><tspan x="-160" y="0" fill="#000">私たちの</tspan><tspan y="0" fill="#008fd4">挑戦</tspan></text>
    <g id="Group_2309" data-name="Group 2309" transform="translate(984.395 1555)">
      <g id="Group_2307" data-name="Group 2307">
        <g id="Group_2306" data-name="Group 2306">
          <g id="Group_2305" data-name="Group 2305" transform="translate(14.93)">
            <g id="Group_2304" data-name="Group 2304">
              <path id="Path_3280" data-name="Path 3280" d="M5222.732,2690.476c.217-1.325.388-3.139-.012-3.625a7.538,7.538,0,0,1-1.625-4.128c-.6-.324-.754-1.437-.812-2.706-.041-.926-.577-2.836.433-3.083a9.359,9.359,0,0,1,1.069-5.317c.92-1.6,3.733-3.221,5.492-2.561,2-.618,5.152.857,6.2,2.629a9.6,9.6,0,0,1,1.042,3.144,12.375,12.375,0,0,1,.173,2.576c.325.108.515.406.515.948,0,.434-.191,1.323-.325,2.219-.177,1.194-.387,2.377-1.189,2.3a8.053,8.053,0,0,1-1.322,3.727,4.076,4.076,0,0,0-.274,3.8,30.21,30.21,0,0,1-4.6,3.138A21.843,21.843,0,0,1,5222.732,2690.476Z" transform="translate(-5220.105 -2668.906)" fill="#008fd4"/>
            </g>
          </g>
          <path id="Path_3281" data-name="Path 3281" d="M5252.2,2820.957a2.1,2.1,0,0,0-.562-1.832c-.7-.8-2.058-.974-2.981-1.4a22.433,22.433,0,0,1-3.15-1.751c-.453-.3-.986-.618-1.473-.959-.456-.32-1-.737-1.548-1.075a6.372,6.372,0,0,0,1.095-.377c-.123-.659-.914-3.282-1.049-3.805-.9-3.468-2.243-6.877-2.232-10.642.01-4.158-.835-8.342-1.02-12.563-.175-4.02.076-9.469.264-13.657a62.854,62.854,0,0,0,.051-7.139c-.066-.737-.352-6.026-.54-9.308.762-.092,1.729-.408,1.93-1.131a12.245,12.245,0,0,0-.258-2.264c-.139-1.636-.264-3.338-.427-4.978-.306-3.06-.44-7.769-.418-10.981.991.1,2.267.217,3.107.217.748-1.64,1.662-4.072,2.587-6.752a1.415,1.415,0,0,0,.231.087c1.453.341,2.387-1.132,3.121-2.489a7.123,7.123,0,0,0,.574-2.413,5.829,5.829,0,0,0-.9-2.717,2.757,2.757,0,0,0-.455-.428c.991-3.283,1.769-6.149,2.038-7.57-.307,1.422-1.127,4.252-2.157,7.481-1.548-1.144-5.081-2.514-4.946-.1-1.044-.387-2.241,1.017-1.658,1.9-.633.443-.432,1.487-.084,2a3.791,3.791,0,0,0,.771.882c-.244.192-.315.481-.168.966.245.811,1.362,1.236,1.984,1.5.372.16.958.534,1.409.775-.917,2.528-1.817,4.815-2.558,6.377a25.16,25.16,0,0,1-2.892-.17c-2.074-.188-5.734-.717-8.45-1.245a30.03,30.03,0,0,1-3.781-.962c.7-1.969,1.468-4.162,2.209-6.4-.879,2.231-1.852,4.718-2.548,6.687a34.648,34.648,0,0,0,4.118,1.117c.008.541.062.969.1,1.542-2.791.146-4.838.2-7.829.208a32.746,32.746,0,0,1-3.857-.151c-.7-.071-1.894-.187-2.574-.255-.659-.066-1.622-.283-2.546-.48.528-1.811,1.065-3.773,1.441-5.431a14.35,14.35,0,0,0,3.084-.708,20.6,20.6,0,0,1,2.434-.538,23.372,23.372,0,0,0,2.98-.83c-.019-.491.02-.849-.043-1.4a3.472,3.472,0,0,1,2.411-.287,10.074,10.074,0,0,0,1.557.168,6.44,6.44,0,0,0,1.734-.2c1.357-.37,3.32-.971,3.443-2.631.72-.252,1.3-.764,1.216-1.5-.052-.454-.5-.623-.869-.7a1.205,1.205,0,0,0-.213-1.264c.479-.272.387-.977.122-1.377-.363-.547-1.144-.584-1.614-.679.188-1.095,1.4-5.545,1.706-7.242,1.321.387,3.207.718,4.527.98s4.168.612,5.81.754c0,.208-.057-1.464-.075-1.849-.033-.673.064-1.364,0-2.036a41.3,41.3,0,0,0-1.245-5.205c-.388-1.643-.557-3.2-2.062-4.166-2.817-1.8-6.921-2.885-9.538-5.228a9.243,9.243,0,0,0-.708,1.33c-.68,1.585-.371,3.811-.369,5.124,0,1.893.089,3.782.251,5.656.316,3.647,0,8.265,0,11.741a11.6,11.6,0,0,0-2.915.481c-.056-1.273-.1-2.3-.112-3.4-.033-2.749-.1-4.686-.367-7.413a49.765,49.765,0,0,0-1.2-6.875c.528-.4,1.472-1.037,2.056-1.4a14.474,14.474,0,0,0-1.32-1.433,19.871,19.871,0,0,0-1.83-1.416c-.659.472-1.075.83-1.6,1.284a6.3,6.3,0,0,0-1.282,1.432,14.391,14.391,0,0,0,2.384,1.485,29.2,29.2,0,0,0-1.451,7.315c-.258,2.572-.452,4.385-.622,7.441-.038.689-.142,2.178-.17,3.338a30.907,30.907,0,0,1-4.5.99c.226-.65.412-1.5.565-2.094a44.9,44.9,0,0,0,1.246-10.354c.077-1.893-.018-3.865-.113-5.771a39.143,39.143,0,0,0-.255-5.433,16.81,16.81,0,0,0-.68-2.122,12.257,12.257,0,0,1-4.969,2.943c-1.523.46-3.867,1.027-5.564,1.593a3.378,3.378,0,0,0-1.622,1.283,12.919,12.919,0,0,0-1.735,5.242c-.184,1.929-.708,3.575-.905,5.547a120.643,120.643,0,0,0-1.019,12.335c0,1.653-.27,4.309.682,5.574.844,1.119,2.449,1.707,4.863,2.008-.112,2-.458,5.165-.7,6.677-.276,1.7-.55,3.4-.855,5.117-.331,1.858-.339,3.764-.59,5.628-.259,1.911-.53,4.042-.869,5.966a8.754,8.754,0,0,0,2.6.906c-.113,1.622-.309,4.3-.264,6.488.038,1.812.13,2.275.076,3.359-.107,2.116.167,4.655.264,6.771.229,5,1.07,11.71,1.018,16.69-.047,4.671.453,6.674.454,11.355,0,1.07.424,3.389.3,4.413a13.987,13.987,0,0,0-.169,4.126c.445,1.69.4,4.135.961,5.871.2.613.906.529,1.4.519a7.085,7.085,0,0,0-1.216,2.009,6.8,6.8,0,0,0-.679,2.349,6.14,6.14,0,0,0-.044.832,1.553,1.553,0,0,0-.156,1.346c.114.553,1.276,1.015,1.785,1.134a14.879,14.879,0,0,0,8.26-.342c.611-.194,1.627-.7,1.67-1.434a1.876,1.876,0,0,0-.231-1.11c-.017-.512-.044-1.042-.051-1.36a4.516,4.516,0,0,0-1.387-3.084c.574-1.1,1.542-.59,1.84-1.822a10.407,10.407,0,0,0-.253-4.337c-.613-1.937-.388-4.04-.6-6.094a39.4,39.4,0,0,1-.455-6.825c.186-1.931.268-4.542.265-6.565,0-1.994.568-5.242.566-7.243-.01-7.645.7-17.643,2.527-24.784.641,3.471.933,6.093,1.051,6.947.271,1.969.8,3.889.91,5.878a126.991,126.991,0,0,0,1.535,14.608c.357,1.812,1.081,3.446,1.521,5.19a25.421,25.421,0,0,1,.68,6.459c-.007,1.964.73,3.5,1.357,5.316a14.943,14.943,0,0,1,.792,5.208,16.873,16.873,0,0,0,.562,3.733c.172.7.342,2.585.514,3.563a8.545,8.545,0,0,0,.867-.13,5.335,5.335,0,0,0-.1,4.7,17.035,17.035,0,0,0,.514,2.283c1.464.038,2.569.057,4.021.057a9.542,9.542,0,0,1,.241-1.256,8.013,8.013,0,0,0,2.965,1.256,13.528,13.528,0,0,0,3.208.4c1.224.031,2.471.021,3.7.018a14.52,14.52,0,0,0,3.905-.322c.233-.1.226-.452.245-.7C5252.025,2821.389,5252.133,2821.152,5252.2,2820.957Z" transform="translate(-5202.689 -2672.667)" fill="#008fd4"/>
        </g>
      </g>
      <g id="Group_2308" data-name="Group 2308" transform="translate(12.029 21.49)">
        <path id="Path_3282" data-name="Path 3282" d="M5234.036,2695.156a9.256,9.256,0,0,0-.708,1.33c-.68,1.585-.371,3.811-.369,5.124,0,1.893.089,3.782.251,5.656.316,3.647,0,8.265,0,11.741a11.59,11.59,0,0,0-2.915.481c-.056-1.273-.1-2.3-.112-3.4-.033-2.749-.1-4.686-.367-7.413a49.772,49.772,0,0,0-1.2-6.875c.528-.4,1.472-1.036,2.056-1.395a14.474,14.474,0,0,0-1.32-1.433,19.828,19.828,0,0,0-1.83-1.416c-.659.472-1.075.83-1.6,1.283a6.3,6.3,0,0,0-1.282,1.432,14.407,14.407,0,0,0,2.384,1.485,29.2,29.2,0,0,0-1.451,7.315c-.258,2.572-.452,4.385-.622,7.441-.038.689-.142,2.178-.17,3.338a30.9,30.9,0,0,1-4.5.99c.226-.65.412-1.5.565-2.094a44.906,44.906,0,0,0,1.246-10.354c.077-1.893-.018-3.865-.113-5.772a39.138,39.138,0,0,0-.255-5.432,16.826,16.826,0,0,0-.68-2.122l1.709-1.016a21.843,21.843,0,0,0,4.762,3.058,30.21,30.21,0,0,0,4.6-3.138Z" transform="translate(-5217.23 -2693.975)" fill="#fff"/>
        <path id="Path_3283" data-name="Path 3283" d="M5252.18,2717.833c-.307,1.422-1.127,4.252-2.157,7.481-1.548-1.144-5.081-2.514-4.946-.1-1.044-.387-2.241,1.017-1.658,1.9-.633.443-.432,1.488-.084,2a3.786,3.786,0,0,0,.771.882c-.244.192-.315.482-.168.966.245.811,1.362,1.236,1.984,1.5.372.159.958.534,1.409.775-.917,2.528-1.817,4.815-2.558,6.378a25.16,25.16,0,0,1-2.892-.17c-2.074-.189-5.734-.717-8.45-1.245a30.068,30.068,0,0,1-3.781-.962c.7-1.969,1.468-4.162,2.209-6.4-.879,2.231-1.852,4.718-2.548,6.687a34.6,34.6,0,0,0,4.118,1.117c.008.541.062.969.1,1.542-2.791.146-4.838.2-7.829.208a32.642,32.642,0,0,1-3.857-.151c-.7-.071-1.894-.187-2.574-.255-.659-.066-1.622-.283-2.546-.48.528-1.811,1.065-3.773,1.441-5.431a14.336,14.336,0,0,0,3.084-.708,20.6,20.6,0,0,1,2.434-.538,23.371,23.371,0,0,0,2.98-.83c-.019-.491.02-.849-.043-1.4a3.473,3.473,0,0,1,2.411-.286,10.043,10.043,0,0,0,1.557.168,6.43,6.43,0,0,0,1.734-.2c1.357-.37,3.32-.97,3.443-2.631.72-.252,1.3-.764,1.216-1.5-.052-.454-.5-.623-.869-.7a1.205,1.205,0,0,0-.213-1.264c.479-.273.387-.977.122-1.377-.363-.547-1.144-.585-1.614-.679.188-1.095,1.4-5.545,1.706-7.242,1.321.386,3.207.718,4.527.98s4.168.612,5.81.754c1.537.124,4.689.2,5.975.311Z" transform="translate(-5216.721 -2696.961)" fill="#fff"/>
      </g>
    </g>
    <g id="Group_2310" data-name="Group 2310" transform="translate(936.623 1561.938)">
      <path id="Path_3284" data-name="Path 3284" d="M5157.627,2788.309c-.163,2.441-.721,14.069-1.527,17.177a12.74,12.74,0,0,1-1.589,3,45.913,45.913,0,0,1-3,4.062c-.53.706-.471.706-.884.648a26.753,26.753,0,0,0-3,1.648,1.442,1.442,0,0,0-.52.845c-.3.293-.074.849.281,1.132a5.352,5.352,0,0,0,2.711.907,8.154,8.154,0,0,0,3.71,0,8.262,8.262,0,0,0,2.825-2.3,4.432,4.432,0,0,1,2.649-1.237v3.793c0,.151.117.152.412.152h1.071a.689.689,0,0,0,.762-.678c0-.412.051-2.678.051-3.5s.824-2.59.766-3.827a5.263,5.263,0,0,0-.681-2.362.494.494,0,0,0-.217-.268c-.3-1,.378-4.215,1.038-6.1a57.106,57.106,0,0,0,2.556-12.261c.787-.06,2.65-.274,3.368-.382a23.472,23.472,0,0,0,4.537-1.031c.054,2.772.716,14.028.771,16.871a22.7,22.7,0,0,1-.983,6.467c-.437,1.913-1.639,2.842-2.4,3.935a7.375,7.375,0,0,1-1.183,1.363,1.631,1.631,0,0,0-.581.24c-.487.339-.935.609-1.2.8a2.852,2.852,0,0,0-1.257,2.022c-.515.61.323,1.5,1.2,1.8a10.425,10.425,0,0,0,3.6.273,4.931,4.931,0,0,0,3.5-1.092,7.476,7.476,0,0,0,1.695-2.678v2c0,.177.109.242.272.242s.6-.059,1.147-.115.686-.285.712-.727.38-2.655.6-3.693a23,23,0,0,0,.883-3.168,4.966,4.966,0,0,0-.479-2.88.777.777,0,0,0-.357-.4,7.736,7.736,0,0,1-.256-3.906c.328-2.494.71-4.934,1.475-8.537a64.917,64.917,0,0,0,.9-10.3,28.7,28.7,0,0,0,3.45-.94c-.243-3.758-2.354-22.365-1.991-28.062s.668-10.708-.606-16.123c-.97-4.122-1.333-5.94-1.162-8.911.636-.182,1.274-.151,1.7-.686a7.12,7.12,0,0,0,.773-1.872,19.67,19.67,0,0,0,.6-5.805,24.343,24.343,0,0,0-.163-3.334c-.056-.561-.136-1.082-.24-1.636-.083-.441-.1-1.7-.305-2.464a12.036,12.036,0,0,1,.183-2.627,14.284,14.284,0,0,0-.724-5.58c-.758-1.692-2.384-2.937-3.128-4.633-.339-.771-.361-1.683-.66-2.489a17.894,17.894,0,0,1-1.07-3.393,28.6,28.6,0,0,1,.21-5.831,21.087,21.087,0,0,0-1.922-10.943,8.441,8.441,0,0,0-3.465-3.315,7.436,7.436,0,0,0-2.674-.588,15.8,15.8,0,0,0-3.125.224c-1.242.276-3.578.734-4.3,1.868-.455.721-.251,1,.056,1.73-.167.553-.933,1.22-1.2,1.752-.726,1.45-.2,2.994-1.088,4.387-.352.55-.984,1.043-.86,1.558.173.725,1.138.518.375,1.534.081.406.276.712.472.673-.656.65-.207.889-.125,1.559a6.562,6.562,0,0,1,.028,1.828c-.066.441.254,1.061.715,1a12.713,12.713,0,0,1,3.023.159c1.24.223,1.313,2.085,1.275,3.464-1.367,1.866-3.925,3.77-4.963,5.825-.832,1.648-1.454,3.495-2.188,5.084-.364.789-1.636,2.062-1.879,3.213s.3,4.939.425,5.728c-.334.091-.518.056-.7.545-.211.576.151,1.121.395,1.7-.3.364-1.273,1.182-1.4,1.666a1.456,1.456,0,0,0,.213,1.486,1.729,1.729,0,0,0,.546,1.636,2.208,2.208,0,0,0,.939,1.3,2.766,2.766,0,0,0,1.9,1.151c.323.808,0,2.507-.323,3.719s-.46,4.292-.66,5.192-.784,5.54-1.061,6.525a7.8,7.8,0,0,1-1.474,2.984,2.533,2.533,0,0,0-.468,2.045c.023.484-.038.892.3,1.2a3.7,3.7,0,0,0,.332,1.845c.269.554.442.788,1.511,1.141-.7,5.535-2.208,16.872-2.693,20.184s-1.374,11.8-1.455,12.769.889,1.294,1.7,1.537A20.484,20.484,0,0,0,5157.627,2788.309Z" transform="translate(-5146.962 -2677)" fill="#008fd4"/>
      <path id="Path_3285" data-name="Path 3285" d="M5178.885,2727.876c-2.06.182-4.637.969-6.97.94a35.476,35.476,0,0,1-6.182-.485c-1.333-.363-1.576-.485-2.061-1.091s-1.334-1.334-2.061-2.062l-1.455-9.778.626-.031c.578-3.891,3.167-7.311,3.708-8.632a5.233,5.233,0,0,0-.717.1c1.031-.97,2.546-2.768,3.151-3.5a7.635,7.635,0,0,1-.524,1.808,37.78,37.78,0,0,0-1.232,3.95,42.108,42.108,0,0,1,6.425-4.97,37.6,37.6,0,0,0-1.617,4.163c-.5-.651-.605-.364-.7-.536-1.442,1.683-5.061,6.021-5.59,7.33l12.753-1.219.484,3.718a21.413,21.413,0,0,0,.727,2.909,5.32,5.32,0,0,0,.647,1.415A39.494,39.494,0,0,0,5178.885,2727.876Z" transform="translate(-5148.846 -2680.76)" fill="#fff"/>
      <path id="Path_3286" data-name="Path 3286" d="M5180.364,2740.539a66.576,66.576,0,0,1-10.416-1.7c-1.455-.485-5.9-1.374-6.869-1.778.081.646.646,3.839.808,4.566,3.556.243,14.3-.252,16.568-.454Z" transform="translate(-5149.263 -2685.575)" fill="#fff"/>
    </g>
    <g id="Group_2311" data-name="Group 2311" transform="translate(770.832 1563.651)">
      <path id="Path_3287" data-name="Path 3287" d="M4973.106,2702.614c1.18.667,3.8,2.4,4.988,3,1.419-1,3.509-3.186,4.76-4.231a6.811,6.811,0,0,0,1.838.918,20.456,20.456,0,0,0-1.147,5.909c-.251,2.82-.565,10.043-.606,12.631s-.125,12.236-.084,14.278.167,6.85.167,8.813h-7.64c-.21-3.425-.585-14.155-.669-19.688-.083-5.552-.292-8-.542-10.668a40.375,40.375,0,0,0-1.838-10.187Z" transform="translate(-4955.241 -2682.194)" fill="#fff"/>
      <path id="Path_3288" data-name="Path 3288" d="M4996.437,2757.408c-1-3.465-1.179-7.457-1.674-11.031-.274-1.966-.705-3.925-.981-5.884-.24-1.7-.085-4-.883-5.514a2.621,2.621,0,0,1,.385-.255c.536-.372,3.129-.152,3.889-.22,1.251-.11,2.441.137,3.558-.371,2.128-.962,2.3-2.9,2.2-4.917-.194-4.022-2.344-7.875-3.729-11.677-.729-2-1.162-4.456-2.281-6.237-.558-.892-1.229-1.561-1.721-2.508a3.5,3.5,0,0,0-1.532-1.875c-3.234-1.487-9.6-1.085-11.818-4.469a20.424,20.424,0,0,0-1.147,5.909c-.252,2.82-.565,10.043-.606,12.631s-.125,12.236-.084,14.278.167,6.85.167,8.813h-7.641c-.21-3.425-.585-14.155-.669-19.688-.083-5.552-.292-8-.541-10.668a40.356,40.356,0,0,0-1.839-10.187c-1.565,1.065-3.844,1.938-5.608,2.908-1.452.8-3.962,1.173-4.795,2.6-.857,1.465-1.069,2.246-1.746,5.017-.514,2.1-.907,4.573-1.587,6.639a57.822,57.822,0,0,0-1.714,5.849c-.511,2.263-1.842,4.616-1.615,6.706.23,2.128,1.237,4.236,1.631,6.333a49.746,49.746,0,0,0,1.9,6.914c.7,2.047,1.491,3.876,2.349,5.786,1.371,3.055,2.383,1.069,4.9,1.5a11.158,11.158,0,0,1,.9,5.99c.167.036,1.4.353,1.565.375a27.169,27.169,0,0,0-.229,5.177c.251,1.838.509,9.035.794,11.232.437,3.383.97,5.87,1.564,9.144.5,2.756,1.556,8.019,1.817,9.4.689,3.633,1.554,10.735,1.817,13.15a50.863,50.863,0,0,1,.27,5.388c0,.922.044,3.382.044,4.344a5.533,5.533,0,0,0,1.314.019,8.134,8.134,0,0,1-2.6,2.089c-.992.45-2.1,1.126-3.2,1.69-1.191.608-.9,2.758.1,2.881.829.1,2.214.095,4.05.095a29.943,29.943,0,0,0,6.014-.555l.052.164h3.271a2.547,2.547,0,0,0,.252-.658,7.659,7.659,0,0,0,2.938.578h8.518c1.838,0,2.84-.083,2.589-1.418s-2.421-2.255-4.008-2.673a17.253,17.253,0,0,1-4.76-1.838c.334-.019.646-.019,1-.04a54.033,54.033,0,0,1,.437-6.889c.46-3.222.9-6.078,1.4-9.354.662-4.344,1.393-9.007,1.838-13.278.238-2.286.7-4.916.9-7.224.375-4.448,1.982-11.378,1.982-14.405,0-1.406.021-7.516.146-9.019C4994.835,2757.858,4995.656,2757.679,4996.437,2757.408Zm-33.839-32.137a28.409,28.409,0,0,1,.418,4.907c.124,1.879.1,4.032.042,5.468a59.179,59.179,0,0,1-.992,8.446c-.386-1.973-.757-3.928-.967-5.146-.222-1.294-.48-2.65-.754-3.926a4.962,4.962,0,0,1,.207-3.423C4961.015,2730.324,4961.931,2727.171,4962.6,2725.271Z" transform="translate(-4952.395 -2682.347)" fill="#008fd4"/>
      <path id="Path_3289" data-name="Path 3289" d="M4973.037,2679.147a6.671,6.671,0,0,0-5.856,7.388c.032.6.15,1.738.219,2.506-.5.689.6,3.989,1.316,4.164a8.808,8.808,0,0,0,3.256,3.853,7.811,7.811,0,0,1,.4,2.36c1.18.667,3.8,2.4,4.988,3,1.419-1,3.509-3.186,4.76-4.231a5.6,5.6,0,0,1-.751-3.131c.172-1.247.794-2.308.767-3.61,1.5-.346.831-4.439.235-4.625a7.817,7.817,0,0,0-.721-2.946,8.176,8.176,0,0,0-2.881-3.882A8.715,8.715,0,0,0,4973.037,2679.147Z" transform="translate(-4954.504 -2678.999)" fill="#008fd4"/>
      <path id="Path_3290" data-name="Path 3290" d="M4991.709,2728.269a7.58,7.58,0,0,1,.626,2.315,4.975,4.975,0,0,1-.293,2.819,3.068,3.068,0,0,1-2.281,1.8,1.483,1.483,0,0,1-1.539-.343,1.455,1.455,0,0,1-.521-1.106c0-.105.046-.934.055-1.04.32,2.959,2.866,1.6,3.494.537A7.514,7.514,0,0,0,4991.709,2728.269Z" transform="translate(-4957.435 -2686.032)" fill="#f0f0f0"/>
      <path id="Path_3291" data-name="Path 3291" d="M4978.62,2706.593a11.786,11.786,0,0,1,2.672,2.151,12.891,12.891,0,0,1-1.315,1.836,27.632,27.632,0,0,1,.751,3.194c.4,2.09.635,3.174.917,5.3.333,2.5.345,3.314.585,5.846.126,1.308.377,3.338.5,4.845.11,1.313.187,2.88.252,4.215.07,1.48.145,6.721.083,8.1a31.494,31.494,0,0,1-3.633,3.758,17.084,17.084,0,0,1-3.423-3.258c-.167-2-.176-8.39-.135-9.269.036-.8.088-2.214.125-3.005.074-1.611.187-2.72.25-4.322.1-2.379.1-3.319.428-6.534.146-1.4.378-3.393.751-5.635a28.137,28.137,0,0,1,.637-3.205,8.11,8.11,0,0,1-1.471-1.638A13.36,13.36,0,0,1,4978.62,2706.593Z" transform="translate(-4955.744 -2682.938)" fill="#008fd4"/>
    </g>
    <g id="Group_2313" data-name="Group 2313" transform="translate(830.526 1562.315)">
      <path id="Path_3292" data-name="Path 3292" d="M5048.564,2677.929a8.876,8.876,0,0,1,3.992,3.864,13.326,13.326,0,0,1,1.423,5.693,10.351,10.351,0,0,1,.489,4.286c-.263,3-2.458,5.7-4.039,6.052a9.375,9.375,0,0,0,.044,1.318,10.2,10.2,0,0,0,2.523,2.226c1.406.861,3.32,1.531,3.53,3.384.412,3.649.451,8.063-.989,11.509-.711,1.7-1.452,3.137-2.033,4.842-.693,2.04-.369,3.674.053,5.693.385,1.847.142,3.5.646,5.322.538,1.954,1.35,4.241,1.07,4.759-.323.593-1.219.689-1.773.839a14.649,14.649,0,0,1,1.939,6.169,26.242,26.242,0,0,1,.117,6.833c-.65,4.287-1.453,12.058-2.026,16.393a32.513,32.513,0,0,0,.549,12.466c1.048,3.953,2.057,8.142,1.6,12.285-.251,2.288-.621,3.961-.94,6.514-.219,1.757-.4,3.524-.464,5.182-.008.248-.242.211-.4.276-.028.568-.049,1.13-.07,1.67a9.48,9.48,0,0,1,.76.819,3.715,3.715,0,0,1,.5.93,3.661,3.661,0,0,1,.251,2.691,6.934,6.934,0,0,0-.622,2.436c-.041,1.073-.122,1.959-.233,3.082-.231.577-.887.465-1.31.432.015-.821,0-1.618.039-2.525a39.055,39.055,0,0,0-.97,4.2,2.575,2.575,0,0,1-1.784,2.186,18.3,18.3,0,0,1-4.1,1.454,13.3,13.3,0,0,1-2.232.134,4.033,4.033,0,0,1-1.944-.47,1.89,1.89,0,0,1-.643-2.37,8.271,8.271,0,0,1,2.043-2.321,8.637,8.637,0,0,0,1.414-2.17,30.218,30.218,0,0,0,1.456-3.172,12.149,12.149,0,0,0,.656-3.19c-1.134.773-1.6,2.525-1.94,3.786-.4,1.5-.663,3.139-1.718,3.918a7.825,7.825,0,0,1-2.536,1.192,7.367,7.367,0,0,1-3.078.394c-1.161-.156-1.972-.541-2.187-1.417a2.532,2.532,0,0,1,.958-2.471,10.014,10.014,0,0,0,1.883-1.989,5.24,5.24,0,0,0,.748-2.727c.072-1.9-.151-4.2.464-5.959a1.691,1.691,0,0,1-.562-.16c-.028-2.2-.158-4.9-.272-7.11-.122-2.393-.311-4.794-.658-7.145a45.025,45.025,0,0,0-1.194-6.345c-.5-1.7-1.646-4.273-2.2-5.975-1.321-4.043-1.079-7.1-2.033-11.235-.95-4.11-1.183-11.4-1.062-15.675.058-2.066.246-4.177.119-6.209-.057-.946-.134-1.794-.239-2.706a31.073,31.073,0,0,0-.956-5.117,2.628,2.628,0,0,1-1.54-1.9,2.541,2.541,0,0,1-.439-1.757,2.139,2.139,0,0,1,.116-1.933,1.275,1.275,0,0,1,.878-1.287c-.322,0-1.088.109-1.273-.029-.914-.072-1.232-.6-1.68-1.113a4.913,4.913,0,0,1-1.3.366c-.623.044-.361-.021-.785-.19-.961-.384-1.5-.377-2.267-2.466a7.578,7.578,0,0,1,.311-5.046,9.688,9.688,0,0,1,2.02-3.426,27.694,27.694,0,0,0,2.767-3.468c1.087-1.451,1.528-2.706,2.485-4.129.939-1.394.941-2.724,1.951-4.3a6.323,6.323,0,0,1,2.862-2.68,7.21,7.21,0,0,0,2.064-1.182,9.746,9.746,0,0,1,3.374-1.584c.137-.493.24-1.079-.065-1.318a9.279,9.279,0,0,1-1.183-1.147,7.887,7.887,0,0,1-1.781-3.509,8.919,8.919,0,0,1,.448-5.6c.372-1.945.459-3.834,1.4-5.568.54-.989,2.827-3.918,4.247-3.092C5044.2,2677.16,5046.851,2677.269,5048.564,2677.929ZM5046,2783.049c.169.973.213,1.326.36,2.063a13.212,13.212,0,0,1,.3,2.854c-.01,1.758-.094,2.489-.191,4.182-.089,1.551-.186,2.482-.3,3.975a8.818,8.818,0,0,0,.417,4.411,9.744,9.744,0,0,1,.9,2.409c.714-3.341.344-7.293.154-10.836a39.063,39.063,0,0,0-.6-5.033A30.931,30.931,0,0,0,5046,2783.049Z" transform="translate(-5022.031 -2677.44)" fill="#008fd4"/>
      <g id="Group_2312" data-name="Group 2312" transform="translate(2.872 23.116)">
        <path id="Path_3293" data-name="Path 3293" d="M5029.521,2724.936c-1.581.993-2.774,2.642-2.73,4.128.052,1.678,1.106,2.554,3.1,2.741a2.643,2.643,0,0,1-4.486-1.514C5025.147,2727.313,5027.2,2725.834,5029.521,2724.936Z" transform="translate(-5025.381 -2707.336)" fill="#fff"/>
        <path id="Path_3294" data-name="Path 3294" d="M5034.619,2732.894a8.08,8.08,0,0,0-1.663,5.107,2.957,2.957,0,0,0,1.114,2.368,2.347,2.347,0,0,0,2.5-.275C5034.673,2739.309,5033.7,2734.6,5034.619,2732.894Z" transform="translate(-5026.461 -2708.472)" fill="#fff"/>
        <path id="Path_3295" data-name="Path 3295" d="M5040.649,2704.405c-.673.715-.958,2.34-.1,2.722,1.759.672,3.12-.382,5.141-1.5-2.263,1.993-3.212,4.56-4.935,7.032a20.883,20.883,0,0,0-2.206,4.145,17.431,17.431,0,0,0-1.011,4.529,15.188,15.188,0,0,0-3.055.105,42.585,42.585,0,0,1,1.222-7.16,56.24,56.24,0,0,1,1.647-5.574A12.109,12.109,0,0,1,5040.649,2704.405Z" transform="translate(-5026.68 -2704.405)" fill="#fff"/>
      </g>
    </g>
    <g id="Group_2318" data-name="Group 2318" transform="translate(878.313 1560.979)">
      <path id="Path_3304" data-name="Path 3304" d="M5126.09,2734.795a3.438,3.438,0,0,1,.736.082,2.458,2.458,0,0,1,.863.492,4.731,4.731,0,0,0,1.02.48,5.424,5.424,0,0,0,2.032.473c.38-.009.768.038,1.148.03a.856.856,0,0,1,.432.073,2.655,2.655,0,0,0,.488.145,6.874,6.874,0,0,1,1.039.17,9.271,9.271,0,0,0,1.142.28,3.73,3.73,0,0,0,1.471.044.54.54,0,0,0,.4-.26.461.461,0,0,0-.1-.476,5.2,5.2,0,0,0,1.327-.058c.405-.085.751-.619.408-.876a1.533,1.533,0,0,0,1-.146.562.562,0,0,0,.191-.718,1.1,1.1,0,0,0-.748-.414c-.348-.068-.673-.145-1.02-.238s-.676-.25-1.027-.381c-.323-.122-.765-.25-1.073-.4.3.1.707.109,1.088.2a6.339,6.339,0,0,1,.858.19,5.765,5.765,0,0,0,.842.23,1.39,1.39,0,0,0,.908,0,.537.537,0,0,0,.3-.7,1.069,1.069,0,0,0-.632-.549,10.589,10.589,0,0,0-1.078-.332,5.976,5.976,0,0,1-.739-.346c-.338-.153-.642-.2-1-.328-.328-.121-.657-.252-1-.356a5.5,5.5,0,0,1-1.013-.253,9.851,9.851,0,0,0-.991-.48c-.3-.124-.689-.251-1-.358-.278-.1-.814-.221-.494-.508a3.292,3.292,0,0,1,.7-.489,6.97,6.97,0,0,0,.768-.484,1.548,1.548,0,0,1,.4-.122c.168-.051.312-.133.473-.2a2.309,2.309,0,0,0,.759-.482c.32-.355.64-1.258.027-1.544a3.192,3.192,0,0,0-1.021.339,3.557,3.557,0,0,1-.763.264,2.915,2.915,0,0,1-.38.143c-.172.032-.44.056-.615.069a2.623,2.623,0,0,0-.851.226,7.964,7.964,0,0,0-.9.336,1.949,1.949,0,0,0-.591.519,9.205,9.205,0,0,1-1.412,1.162,4.647,4.647,0,0,1-.838.653,1.363,1.363,0,0,1-.638.166c-.141,0-.666-.078-.722.019a4,4,0,0,0-.43,1.446,21.694,21.694,0,0,0-.043,3C5125.811,2734.724,5125.832,2734.777,5126.09,2734.795Z" transform="translate(-5084.626 -2683.063)" fill="#008fd4"/>
      <path id="Path_3305" data-name="Path 3305" d="M5124.77,2730.189c-1.015.875-1.041,1.864-1.163,3.122s-.445,3.23.184,3.337c.229.028.82.032,1.052.027a1.213,1.213,0,0,0,.837-.377,2.582,2.582,0,0,0,.5-.905c-.14-.016-.281-.023-.423-.026-.258-.018-.279-.071-.292-.262a21.706,21.706,0,0,1,.044-3,3.988,3.988,0,0,1,.43-1.446c.018-.032.091-.046.184-.048,0-.056-.082-.08-.21-.111S5125.065,2730.252,5124.77,2730.189Z" transform="translate(-5084.29 -2683.635)" fill="#fff"/>
      <g id="Group_2317" data-name="Group 2317" transform="translate(0 0)">
        <path id="Path_3306" data-name="Path 3306" d="M5094.225,2803.333c.185-1.792.534-5.78.477-7.042s.556-3.172.791-5.255c.206-1.824.654-5.206.8-7.275s.542-5.2.882-7.881.82-5.518,1.147-7.671c.9,3.535,1.029,8.837,1.506,11.281s1.774,7.883,2.085,9.783.688,4.7.742,6.054-.281,6.461.222,9.177c.265,1.434.869,2.961.768,4.242-.042.525.373.533.939.655a4.215,4.215,0,0,0-.738,1.49,8.559,8.559,0,0,0,.044,4.511,11.172,11.172,0,0,0,.1,1.488c-.017.638.314.77,1.062.939.863.2,4.651.375,4.651.375a5.5,5.5,0,0,1,.73-1,36.678,36.678,0,0,0,8.829,1.658,15.04,15.04,0,0,0,5.1-.407,3.54,3.54,0,0,0,1.28-.71.773.773,0,0,0,.008-1.291,2.674,2.674,0,0,0-1.316-2.052,18.157,18.157,0,0,0-3.424-1.689c-1.8-.858-4-1.862-4.736-2.353a11.246,11.246,0,0,0-1.753-.986s.524-.037.6-.417a36.487,36.487,0,0,0-.289-4.468c-.328-2.345-.256-4.842-.526-6.56a16.65,16.65,0,0,1-.324-4.828c.218-1.435-.137-1.625-.626-3.619s-.745-5.965-1.351-10.3-1.1-5.973-.977-10.835-.876-9.553-1.161-14.155a63.661,63.661,0,0,0-.6-6.472,1.4,1.4,0,0,0,1.128-1.771c-.244-1-.714-5.469-1.125-6.92s-1.14-8.046-1.37-9.583a14.4,14.4,0,0,0,3.383,1.528,21.363,21.363,0,0,0,3.676.638c.807.111,1.341.4,1.53.04a7.044,7.044,0,0,0,.685-2.053c-.627-.107-.305-2.081-.182-3.338s.148-2.248,1.162-3.122a9.852,9.852,0,0,0-1.7-.315c-.718-.108-2.15-.416-2.958-.527a7.7,7.7,0,0,1-2.152-.417c-.623-.287-.7-.648-1.509-.849s-1.885-.23-3.227-.626c-.059-1.173-.313-5.233-.372-6.405a23.439,23.439,0,0,0-.593-4.879c-.491-1.9-.917-6.24-1.157-7.417a3.518,3.518,0,0,0-2.014-2.214,8.3,8.3,0,0,1-2.2-1.77,4.307,4.307,0,0,0-.25-.772,3.674,3.674,0,0,0-.383-.644c.022-.111.039-.2.062-.3,1.238-.029,2.859.508,3.756-.38a1.59,1.59,0,0,0,.339-1.647,4.029,4.029,0,0,1,.227-1.563.791.791,0,0,0-.111-.562,1,1,0,0,0,.224-.429c.049-.185-.13-.373.03-.612.061-.092.43-.046.594-.112a.764.764,0,0,0,.425-.991,9.642,9.642,0,0,0-.532-1.019,3.452,3.452,0,0,1-.754-1.951c.021-.9.761-1.044.61-2.081-.092-.63-.488-1.292-.516-1.887a2.739,2.739,0,0,0,.589-1.683c.051-1.424-1.343-1.887-2.183-2.678a3.69,3.69,0,0,0-1.322-1.027,17.691,17.691,0,0,1-1.761-.7c-.8-.424-3.517-1.366-4.124-.333a2.079,2.079,0,0,0-.748-.043,4.421,4.421,0,0,0-1.22-.077,7.074,7.074,0,0,0-1.711.833,8.648,8.648,0,0,0-1.115,1.322,5.2,5.2,0,0,0-1.117,1.39c-.336.771-.8,1.466-1.106,2.267-.8.858-.86,3.283-.2,4.961.219.554.635,1.161.834,1.677a20.126,20.126,0,0,0,.624,1.941c.031,1.761,1.046,2.108,2.571,2.39a5.568,5.568,0,0,0-.908.345,2.752,2.752,0,0,0-.8.79c-.3.5-1.47,1.966-1.4,2.359a13.2,13.2,0,0,0-2.9,1.607,21.866,21.866,0,0,0-3.149,2.219,13.136,13.136,0,0,0-3.75,4.507c-.9,2.1-.613,4.547-.788,6.859-.083,1.1-.383,2.146-.422,3.262a31.1,31.1,0,0,0,.182,3.37,21.753,21.753,0,0,1-.155,3.3,21.378,21.378,0,0,0,.185,3.314c.1,1.225-.226,2.374.3,3.471a13.016,13.016,0,0,0,1.961,2.483c-.062.42-.149,1.993-.181,2.425-.046.6-.024,1.517-.011,2.1.029,1.233-.053,2.475-.141,3.666-.167,2.245-.565,4.029-.836,6.217a21.871,21.871,0,0,0-.31,3.978c.028.3.552.507.913.582.49.1.859-.489,1.121-.877-.011,1.293-.188,1.8.83,2.446a13.9,13.9,0,0,0,2.513,1.042c-.088,1.029-.087,2.931-.054,5.048.039,2.351.164,4.1.13,5.363-.035,1.343-.206,2.711-.241,4.026-.048,1.822.11,2.681.064,4.436-.105,4.039-.406,7.4-.155,11.057.262,3.791.111,9.552.512,11.454s-.114,9.071-.53,11.194c-.43,2.183-.534,3.033-.277,4.111.353,1.479.645,1.507,1.266,1.759a4.5,4.5,0,0,0-.6,2.063,11.088,11.088,0,0,0,.323,3.142,9.886,9.886,0,0,1-.032,1.231c-.014.526.808,1.132,1.341,1.385a11.2,11.2,0,0,0,2.35.891,8.042,8.042,0,0,0,1.083-.408,16.461,16.461,0,0,0,6.321,3.473,8.168,8.168,0,0,0,4.82-.054c.918-.378,1.553-1.671,1.042-2.417a5.707,5.707,0,0,0-1.97-3.417,33.981,33.981,0,0,0-2.909-2.44,24.27,24.27,0,0,1-3.6-3.628,2.963,2.963,0,0,0,.723-.132c.191-.038.386-.036.526-.8a10.927,10.927,0,0,0,.183-3.069A10.512,10.512,0,0,1,5094.225,2803.333Z" transform="translate(-5077.774 -2675.882)" fill="#008fd4"/>
        <path id="Path_3307" data-name="Path 3307" d="M5099.336,2738.221a8.545,8.545,0,0,0-1.719,2.42,4.356,4.356,0,0,0-.28,1.648c-.014.541.157,1.762.654,2.111a1.576,1.576,0,0,1-1.347-.136c-.4-.212-.767-.425-1.132-.6a7.476,7.476,0,0,1,.544-2.756,9.09,9.09,0,0,1,1.683-2.387c.313-.262.419-.5.657-.557A1.235,1.235,0,0,1,5099.336,2738.221Z" transform="translate(-5080.307 -2684.741)" fill="#fff"/>
        <path id="Path_3308" data-name="Path 3308" d="M5093.427,2695.635a2.778,2.778,0,0,0,.668,2c.607.915,2.135,4.469,3.255,6.39s4.363,12.274,4.938,14.361a11.753,11.753,0,0,1,.209,5.77c-.4,1.521-4.147,17.32-4.827,19.193,1.606.582,8.546-.292,10.028-1.4-.135-3.679.313-15.125.1-17.472a87.321,87.321,0,0,0-2.131-11.5c-.826-2.813-2.3-8.345-2.458-9.342s-.559-2.716-.621-3.8" transform="translate(-5080.005 -2678.701)" fill="none"/>
        <path id="Path_3309" data-name="Path 3309" d="M5093.427,2695.552c.108-.245.652-.422.9-.494l.021.232c.047.377,1.878,2.047,2.849,3.051,1,1.038,2.866,2.778,3.922,3.733a22.2,22.2,0,0,0,.842-3.735,3.8,3.8,0,0,1,.381.643,4.308,4.308,0,0,1,.25.773c.062,1.082.466,2.8.621,3.8s1.631,6.528,2.458,9.342a87.321,87.321,0,0,1,2.131,11.5c.208,2.347-.239,13.793-.1,17.472-1.482,1.11-8.422,1.984-10.028,1.4.68-1.874,4.427-17.673,4.827-19.193a11.753,11.753,0,0,0-.209-5.77c-.575-2.087-3.817-12.441-4.938-14.361s-2.648-5.474-3.255-6.39A2.778,2.778,0,0,1,5093.427,2695.552Z" transform="translate(-5080.005 -2678.619)" fill="#fff"/>
        <path id="Path_3310" data-name="Path 3310" d="M5102.659,2703.971a18.983,18.983,0,0,0-1.173,3.054,4.2,4.2,0,0,0,1.067.337c.467,2.564.883,5.083,1.357,8.126a83.742,83.742,0,0,1,.851,12.273c.017,3.651-.208,7.875-.335,9.313a12.019,12.019,0,0,0,3.5,2.118,16.277,16.277,0,0,0,1.339-2.983c.034-1.3.462-9.04-.162-12.7a116.044,116.044,0,0,0-5.013-16.666,2.841,2.841,0,0,0,.338-1.325A4.179,4.179,0,0,0,5102.659,2703.971Z" transform="translate(-5081.16 -2679.892)" fill="#008fd4"/>
        <path id="Path_3311" data-name="Path 3311" d="M5098.136,2741.869a7.932,7.932,0,0,1,.394.867c.294.607.373,1.313.716,1.9.322.55.96.829,1.387,1.363a9.42,9.42,0,0,0,1.362,1.249c.45.381.849,1.269,1.561.888a.312.312,0,0,0,.122-.323.536.536,0,0,0,.312-.319c.155-.621-.455-1.082-.683-1.459.256-.331.047-.921-.439-1.283a.841.841,0,0,0,.338-.881c-.057-.691-.928-.908-1.074-1.537a3.463,3.463,0,0,1,.276-2.021,5.02,5.02,0,0,0,.193-2.11c-.047-.635.441-.991.728-1.546a3.086,3.086,0,0,0,.227-2.125c-.195-.625-.855-.913-1.266-.311-.431.633-.449,1.164-1.06,1.706a4.875,4.875,0,0,0-1.176,1.534Z" transform="translate(-5080.682 -2684.163)" fill="#008fd4"/>
      </g>
    </g>
    <g id="Group_2280" data-name="Group 2280" transform="translate(-111 -592)">
      <text id="コンセプトカー" transform="translate(677 2193)" fill="#3c5267" font-size="13" font-family="HiraKakuStdN-W7, Hiragino Sans" letter-spacing="0.08em"><tspan x="-48.36" y="0">コンセプトカー</tspan></text>
      <text id="i-ROAD" transform="translate(789 2196)" fill="#3c5267" font-size="22" font-family="HiraKakuStdN-W7, Hiragino Sans" letter-spacing="0.08em"><tspan x="-48.612" y="0">i</tspan><tspan y="0" font-family="SegoeUI-Bold, Segoe UI" font-weight="700">-</tspan><tspan y="0">ROAD</tspan></text>
      <g id="Group_2279" data-name="Group 2279" transform="translate(3034.605 1366.743)">
        <path id="Path_3272" data-name="Path 3272" d="M-2303.885,820.681a12.59,12.59,0,0,1-12.144,12.414,12.418,12.418,0,0,1-12.783-12.255,12.413,12.413,0,0,1,12.141-12.579A12.586,12.586,0,0,1-2303.885,820.681Zm-19.374.362a7.8,7.8,0,0,0,1.932,5.137,6.288,6.288,0,0,0,9.037.816,8.493,8.493,0,0,0,1.3-11.257c-2.319-3.161-6.113-3.885-9.159-1.668C-2322.368,815.683-2323.254,817.986-2323.259,821.042Z" transform="translate(-161.948 0)" fill="#eb0a1e"/>
        <path id="Path_3273" data-name="Path 3273" d="M-2478.6,808.286a12.5,12.5,0,0,1,12.468,12.532,12.557,12.557,0,0,1-12.722,12.305,12.454,12.454,0,0,1-12.18-12.859A12.41,12.41,0,0,1-2478.6,808.286Zm6.92,12.418a8.635,8.635,0,0,0-1.62-5.088,6.416,6.416,0,0,0-9.486-1.207,8.6,8.6,0,0,0-.189,12.378,6.15,6.15,0,0,0,8.058.534A7.971,7.971,0,0,0-2471.683,820.7Z" transform="translate(-48.6 -0.02)" fill="#eb0a1e"/>
        <path id="Path_3274" data-name="Path 3274" d="M-2155.694,834.675c-.241.021-.434.051-.626.052-1.688,0-3.377-.007-5.066.013a.592.592,0,0,1-.642-.482c-.523-1.434-1.083-2.855-1.6-4.292a.628.628,0,0,0-.7-.492q-4.221.021-8.444,0a.705.705,0,0,0-.78.553q-.759,2.128-1.589,4.23c-.077.193-.335.445-.513.449-1.906.032-3.813.02-5.789.02a4.164,4.164,0,0,1,.135-.5q4.7-11.1,9.393-22.2a.693.693,0,0,1,.744-.523q2.714.036,5.428,0a.78.78,0,0,1,.854.558q4.488,11.025,9,22.041C-2155.822,834.268-2155.774,834.439-2155.694,834.675Zm-9.437-9.113-3.2-8.309-.172.009-3.185,8.3Z" transform="translate(-264.912 -2.268)" fill="#eb0a1e"/>
        <path id="Path_3275" data-name="Path 3275" d="M-2396.29,821.269c.578-.95,1.121-1.834,1.655-2.722,1.314-2.186,2.631-4.371,3.931-6.565a.874.874,0,0,1,.865-.49c1.487.023,2.974.006,4.461,0h.844c-.69,1.1-1.3,2.075-1.922,3.049q-3.482,5.461-6.957,10.926a1.9,1.9,0,0,0-.261.956c-.022,2.472-.013,4.944-.013,7.415v.821h-5.186c-.016-.187-.041-.342-.041-.5,0-2.472-.017-4.944.012-7.415a2.629,2.629,0,0,0-.433-1.523q-4.092-6.393-8.164-12.8c-.17-.267-.333-.539-.542-.878.235-.024.385-.052.533-.052,1.688,0,3.376.008,5.064-.011a.836.836,0,0,1,.85.5c1.639,2.926,3.3,5.838,4.963,8.753C-2396.542,820.888-2396.441,821.033-2396.29,821.269Z" transform="translate(-106.593 -2.256)" fill="#eb0a1e"/>
        <path id="Path_3276" data-name="Path 3276" d="M-2233.964,834.711v-.99c0-5.746-.007-11.492.015-17.239,0-.587-.116-.8-.754-.786-2.028.043-4.058.016-6.088.016h-.7v-4.175c.224-.01.438-.028.65-.028q9.313-.005,18.626-.019c.511,0,.709.108.689.661-.042,1.158-.013,2.319-.013,3.527-.3.014-.538.033-.773.033q-2.8,0-5.606,0c-.836,0-.837,0-.836.867q0,8.679,0,17.359c0,.777,0,.773-.8.771C-2230.992,834.709-2232.435,834.711-2233.964,834.711Z" transform="translate(-222.958 -2.259)" fill="#eb0a1e"/>
        <path id="Path_3277" data-name="Path 3277" d="M-2541.012,811.723v4.154h-.73q-2.833,0-5.666,0c-.8,0-.8,0-.8.783q0,8.709,0,17.418v.757h-5.205V833.9c0-5.766-.009-11.532.013-17.3,0-.589-.162-.746-.74-.736-1.928.034-3.857.012-5.786.011h-.679v-4.153Z" transform="translate(0 -2.421)" fill="#eb0a1e"/>
      </g>
    </g>
  </g>
</svg>
